<?xml version="1.0" encoding="UTF-8"?>
<svg id="OBJECTS" xmlns="http://www.w3.org/2000/svg" viewBox="0 0 503 500">
  <defs>
    <style>
      .cls-1 {
        fill: #fff;
      }
    </style>
  </defs>
  <path class="cls-1" d="M213.68,168.25l4.42.46,1.41-.24c-.97-.09-1.94-.13-2.92-.15l-2.91-.08Z"/>
  <path class="cls-1" d="M234.11,172.64c2.46.47,4.93.92,7.38,1.42-1.97-1.07-1.56-1.17-2.06-1.46-.25-.14-.74-.32-1.87-.67-1.13-.35-2.91-.9-5.77-1.64-1.03-.14-2.37-.36-3.78-.52-1.42-.15-2.91-.3-4.23-.44-2.66-.19-4.65-.18-4.07.11,1.47.17,3.31.22,5.31.48,2,.21,4.18.49,6.33,1-1.9-.05-6.56-.86-8.82-.73,6.94,1.46,4.48.36,12.11,2l-.5.45Z"/>
  <path class="cls-1" d="M243.08,173.39c-.72.04-1.47.08-1.39.27.74-.04,4.38.55,1.39-.27Z"/>
  <path class="cls-1" d="M247.57,174.32c4.62,1.18-.17.41.27.58l5.46.55-5.73-1.14Z"/>
  <path class="cls-1" d="M266.78,179.28c.77.18,1.48.35,2.19.51-.7-.32-1.36-.39-2.19-.51Z"/>
  <path class="cls-1" d="M276.24,181.75c-1.82-.78-4.23-1.26-7.27-1.95.08.04.16.07.28.12,2.58.94-.04.78-4.27-.49-4.49-1.06-3.96-1.49-7.92-2.13l5.19,1.81c7.02,1.78,11.2,2.12,13.99,2.65Z"/>
  <path class="cls-1" d="M266.78,179.28c-.8-.19-1.61-.39-2.51-.63,1.09.38,1.85.53,2.51.63Z"/>
  <polygon class="cls-1" points="257.16 176.7 254.75 176.19 255.26 176.57 257.16 176.7"/>
  <path class="cls-1" d="M291.91,186.04c-1.27.42-11.19-3.19-12.58-2.96,6.21,1.68,11.01,3.58,9.55,3.6l6.92,1.67c2.35.35-.41-.98-3.89-2.31Z"/>
  <path class="cls-1" d="M304.85,191.53c.47.06,1.02.16,1.62.3-.76-.17-1.41-.31-1.62-.3Z"/>
  <path class="cls-1" d="M340.19,198.36c-5.42-1.07-10.88-1.92-16.34-2.82,1.56.08,1.01-.28,4.73.42-7.17-1.62-8.19-1.31-14.13-2.73-.82-.55,1.81.06,4.23.57,2.42.52,4.63.99,2.98.32-2.1-.43-4.71-.97-7.23-1.48-2.51-.53-4.93-1.03-6.68-1.18l-6.43-2.22,2.04,1.34c2.59.93,5.51.86,7.02,1.8.76.53-1.95-.1-3.84-.53,2.15.48,5,1.44,8.47,2.41,3.48.95,7.48,1.95,11.84,2.82,9.18,1.87,7.28.23,13.34,1.28Z"/>
  <polygon class="cls-1" points="340.65 199.33 341.6 199.87 340.96 199.3 340.65 199.33"/>
  <path class="cls-1" d="M358.11,203.71c-2.74-.9-5.48-1.73-8.28-2.4-.86-.34-1.31-.64-1.86-.94.29.26-2.03-.09-1.71.15,3.6,1.69,10.07,2.85,14.32,4.66,1.35.68,2.36,1.19,3.08,1.6.71.42,1.15.69,1.39.85.49.33.2.24-.3.05-1-.38-2.79-1.15-.9.24-2.97-1.52-2.99-1.76-7.32-3.55,3.29,1.69,7.01,3.43,10.26,5.31,3.26,1.86,6.02,3.9,7.73,5.46-.47-.48-.72-.82-1.1-1.25-.19-.21-.41-.46-.71-.74-.32-.27-.71-.59-1.22-.98,1.33.92,2.55,1.98,3.74,3.08-1.58-1.97-3.23-3.71-5.8-5.54-2.56-1.84-6-3.85-11.32-5.99Z"/>
  <path class="cls-1" d="M343.44,199.02c3.12.75,4.25,1.18,4.48,1.33-.75-.4-1.75-.86-4.48-1.33Z"/>
  <path class="cls-1" d="M376.23,216.97c-.32-.41-.91-1.04-1.71-1.84.38.44.86,1,1.71,1.84Z"/>
  <path class="cls-1" d="M373.45,212.99c1.46,1.35,2.84,2.79,4.04,4.37-.36-.7-.83-1.33-1.28-1.99-.53-.64-2.76-2.59-2.76-2.38Z"/>
  <path class="cls-1" d="M208.5,248.48c.44.44,2.48,1.3,6.94,2.72-.65.18-6.37-1.81-9.11-2.54,5.76,2.22-.25.38,1.12,1.23,6.52,2.25,9.58,2.77,16.57,5.13-.39-.01-.32.18.56.6,8.52,2.52,23.03,6.5,31.31,9.02,8.02,2.31,14.08,3.64,23.06,5.47,14.7,3.3,29.94,5.92,45.6,6.71,7.82.39,15.75.25,23.64-.83,7.84-1.15,15.77-3.28,22.54-7.74.59-.5,1.08-1.1,1.61-1.64.54-.54,1.02-1.13,1.48-1.73.33-.2.89-.57,1.41-1.13.53-.55,1.14-1.17,1.64-1.77.97-1.24,1.76-2.25,1.69-1.75-.56.66-1.08,1.33-1.62,2.05-.6.66-1.21,1.38-1.93,2.14.66-.55,1.31-1.21,2.02-1.9.63-.75,1.31-1.55,1.93-2.43.56-.92,1.25-1.83,1.71-2.89.25-.52.51-1.04.77-1.56.22-.54.42-1.1.64-1.65.86-2.21,1.36-4.59,1.78-6.88.14-1.16.29-2.3.42-3.41.16-1.11.17-2.19.27-3.22-.18.95-.89,2.23-.86-.23.18.17.34-.35.4-1.27.02-.91.04-2.22-.04-3.62-.15-1.39-.22-2.89-.45-4.16-.09-.64-.15-1.24-.18-1.76-.05-.51-.1-.94-.07-1.26-.46-2.02-.94-2.97-1.18-3.47-.25-.49-.35-.5-.46-.52-.25-.02-.33-.18-2.38-3.86-.22-.12-.07.25.28.89.33.66.76,1.65,1.27,2.68.39,1.08.87,2.21,1.13,3.21.25,1,.43,1.82.45,2.2-.27-.6-.53-1.35-.76-2.13-.23-.78-.58-1.55-.82-2.26-.24-.71-.54-1.3-.76-1.68-.22-.39-.38-.57-.45-.42,1.46,2.93,2.74,6.75,3.26,11.23.53,4.45.37,9.6-.56,14.75l-.18.97-.26.95c-.18.63-.33,1.28-.52,1.91-.47,1.24-.86,2.52-1.49,3.71-.53,1.24-1.27,2.37-1.95,3.54-.8,1.09-1.56,2.22-2.5,3.21-1.81,2.02-3.88,3.84-6.17,5.29l-.84.56-.88.5c-.59.33-1.16.68-1.76.98-1.21.57-2.39,1.18-3.62,1.63.63-.4,1.27-.8,1.86-1.25-4.76,2.36-11.64,4.16-18.39,4.86-6.75.75-13.31.54-17.6.06.5.12-.24.14-1.61.12-1.37-.06-3.37-.14-5.39-.29-4.03-.25-8.11-.64-7.36-.06-2.71-.53-3.54-.57-7.4-1.16l-1.1.16c-5.5-.82-4.54-1.14-10.82-2.18,4.03,1.13-.56.46-2.45.46-7.11-1.78-15.34-3.99-21.59-5.9.46.25,1.01.53,3.14,1.22-4.28-1.15-3.62-.61-4.8-.74-4.14-.99-3.58-1.43-3.32-1.64-7.53-2.09-11.18-2.03-16.73-3.95l1.89.97c-7.82-2.08-14.16-4.48-22.71-7.02-3.92-1.85,7.13,1.72,10.74,2.52-1.7-.63-5.35-1.79-6.44-2.33-3.74-.84-9.93-2.39-14.51-3.61,4.49.76-6.26-2.74-9.14-3.79Z"/>
  <path class="cls-1" d="M232.16,255.88c1.06.23,1.97.43,2.5.53-.84-.22-1.62-.42-2.85-.83-.14.04.02.15.34.3Z"/>
  <path class="cls-1" d="M208.5,248.48s-.15-.09-.15-.12c-.85-.25-.57-.14.15.12Z"/>
  <path class="cls-1" d="M257,264.98c-.32-.1-.76-.23-1.11-.34-.49-.14-.91-.26-1.4-.4l2.51.74Z"/>
  <path class="cls-1" d="M263.93,264.77c1.63.58,3.89,1.29,6.46,2.08-.67-.38-1.26-.64-6.46-2.08Z"/>
  <path class="cls-1" d="M317.03,275.04c1.66.08.72-.13,1.9-.18-3.41-.31-4.57-.3-1.9.18Z"/>
  <polygon class="cls-1" points="222.88 252.83 216.4 250.85 214.01 250.17 222.88 252.83"/>
  <path class="cls-1" d="M99.3,195.61c2.04,2.21,4.88,4.61,7.94,6.98,3.08,2.36,6.41,4.66,9.45,6.77,5.72,3.63,6.27,3.54,6.68,3.53.43-.05.73-.05,6.25,3.19l-2.43-.21c5.51,3.28,12.31,7.05,19.07,10.34,6.76,3.3,13.48,6.12,18.67,7.78.85.49,2.88,1.49-.26.37,7.96,3.19,4.62.25,15.23,4.53-10.26-3.04,3.07,1.78.1,1.39l-1.6-.5c6.83,2.43,15.97,5.34,20.46,6.95.28-.19-3.51-1.96,2.53.12-2.42-.9-1.34-.85-1.03-1.03-6.36-1.91-9.68-3.3-13.57-4.33-3.36-1.59,2.38.74-.98-.85l-5.12-1.51c-3.64-1.42,3.92,1.05-1.79-1.11-.71-.06-5.49-1.49-9.88-3.24l1.31.39c-3.42-1.16-8.09-3.37-6.69-2.14-1.24-.74-2.48-1.48-3.7-2.24l.52.66c-4.53-2.08-7.51-3.79-10.83-5.63-3.31-1.84-6.98-3.79-12.74-6.65,2.67,1.57.07.44-1.4-.31,4.58,2.83,5.95,2.89,10.5,5.15.49.72-7.42-2.83-2.04.22-5.81-3.5-11.34-6-13.33-8.33-3.51-2.05-5.94-3.47-8.38-4.9-2.42-1.45-4.85-2.95-8.17-5.42l.28.02c-1.62-.37-5.33-4.09-10.46-7.47,1.09.97,2.21,1.9,3.31,2.85-.32.07-2.02-1.2-4.32-3.08q.32.14-.33-.59c-.25-.05-.88-.47-1.71-1.07-.81-.62-1.8-1.45-2.8-2.28-1.96-1.71-3.87-3.53-4.31-3.93,2.68,2.91,6.49,5.91,10.12,8.73-1.95-1.31-1.72-.49-4.58-3.16Z"/>
  <path class="cls-1" d="M172.88,235.86c-.85-.23-1.71-.44-2.55-.69,1.01.35,1.96.6,2.55.69Z"/>
  <path class="cls-1" d="M80.02,164.94c-.43-5.1.5,1.3.28-3.43-.29-2.62-.4-1.1-.49.43-.06,1.51-.13,3.09-.6.53-.01-.8-.02-1.73-.08-2.69-.04-.97-.18-1.98-.19-2.97-.04-.98-.08-1.94-.11-2.78-.05-.84.03-1.57.05-2.1.1,2.37.84,1.02,1.04.12-.12-2.01.84-6.38,1.77-9.61-.65,1.96-.77,2.56-.8,2.4,0-.15.14-1.04.33-1.95.47-1.78.98-3.69-.32-.13-.05-.16.04-.75.22-1.61.1-.43.21-.92.34-1.46.18-.52.37-1.09.57-1.67.78-2.35,2.15-4.82,3.12-6.12.06.17-.26.81-.72,1.64-.47.82-.94,1.91-1.42,2.87-.14.88.5-.29,1.29-1.78.38-.75.93-1.51,1.36-2.17.43-.67.87-1.16,1.14-1.34.92-1.74,2.73-4.23,5.1-6.66,2.36-2.44,5.35-4.69,8.12-6.4.68-.45,1.36-.84,2.01-1.2.65-.36,1.24-.74,1.82-1.02,1.16-.58,2.09-1.12,2.77-1.47,1.35-.71,1.51-1-.32-.59-2.66.9-4.73,2.16-7.3,3.76,1.84-1.07,2.86-1.42,3.22-1.56.38-.12.16.08-.3.4-.96.61-2.81,1.91-3.06,2.18-1.57.84-3.53,2.28-4.92,3.43-1.39,1.15-2.23,1.98-1.86,1.34l.99-1.03c.34-.34.7-.65,1.05-.97.7-.64,1.41-1.3,2.17-1.87-1.92,1.26-3.78,2.8-5.62,4.49-1.75,1.77-3.53,3.67-5,5.88-3.08,4.32-5.22,9.58-6.36,15.08-1.17,5.51-1.34,11.28-.86,16.83.32,5.66,2.26,11.07,4.95,15.59-1.45-2.67-2.8-5.43-3.6-8.39.52.97,2.06,4.99,3.83,7.81-.24-.71-.45-1.43-.67-2.13-.22-.7-.44-1.41-.57-2.13.96,2.37,2.28,4.45,1.95,4.39,1.9,2.53,1.31,1.18.58-.53,1.7,2.81,2.82,4.37,3.84,5.77.54.68,1.05,1.32,1.65,2.02.61.7,1.36,1.41,2.28,2.29-1.72-2.15-2.84-3.73-3.81-4.96-.9-1.28-1.66-2.21-2.38-3.23-.67-1.04-1.49-2.07-2.26-3.65-.41-.78-.88-1.66-1.26-2.75-.2-.54-.42-1.12-.66-1.74-.17-.64-.35-1.33-.54-2.07l-.49-.74-.41-.77-.84-1.58Z"/>
  <path class="cls-1" d="M91.41,185.85c-.68-.59-1.36-1.17-1.99-1.81.86,1.06,1.86,2.02,2.79,3.02l-.8-1.22Z"/>
  <path class="cls-1" d="M87.43,183.59c.05-.21,1.13,1.06,1.17.84-1.6-2.08-2.23-3.05-2.36-3.08-.1-.05.28.87,1.19,2.23Z"/>
  <path class="cls-1" d="M91.07,125.91c1.48-1.62,3.15-3.07,4.87-4.44l-1.74,1.27c-.59.42-1.11.91-1.67,1.37.19.05-.95,1.16-1.46,1.8Z"/>
  <path class="cls-1" d="M133.57,107.75c-4.71.39-8.05.93-11.51,1.61-3.45.7-7.05,1.44-12.2,2.98-2.41,1.1-1.72,1.15-.74,1,1.01-.1,2.34-.32,1.36.25,5.01-1.49,4.15-2.12,9.47-3.47,1.03-.01,2.98-.39,5.34-.81,2.36-.4,5.13-.84,7.74-.97-.65-.13-.67-.33.52-.58Z"/>
  <path class="cls-1" d="M165.79,110.5c4.27.38,8.59.55,11.94,1.11-.51.2-3.06.04-5.62-.3,1.6.78,4.72.38,9.27,1.35-.39-.11-2.04-.41-.73-.39,5.7.73,7.32.84,9.37,1,2.04.16,4.52.4,11.9,1.6,2.16.13,4.28.45,3.97,0,8.33,1.72,4.09,1.1,14.11,3.05-.35-.29-3.59-1.32-3.44-1.81,14.17,2.86,14.59,2.13,23.62,4.04-1.03-.13-2.26-.19-4.71-.63,1.07.88,7.67,1.05,12.71,1.95l-.59.52c4.7.61,12.83,1.42,18.66,2.67l-1.38.11c6.02.6,12.54,1.42,18.82,2.12,3.14.35,6.23.68,9.14,1.15,2.93.42,5.72.78,8.28,1.07l5.45,1.1c7.07.68,3.58.18-.38-.44-3.96-.62-8.37-1.4-3.17-1.14,1.41,1.31,7.31.6,15.27,2.04,3.73.91-8.14-.8-4.01.23,1.84-.34,4.29.38,8.57.75-.99.41,8.91,1.22,6.19,1.48,5.04.33,10.08.67,15.12,1.08,2.37.65,6.71,1.26,9.92,1.71-8.07-1.3,2.35-.46-6.68-2.11-6.63-.88-15.48-1.97-24.73-3.1-9.26-1.14-18.92-2.35-27.14-3.69-.96.25-3.6-.17-6.35-.6-2.76-.34-5.62-.71-6.98-.57-.36-.28-1.58-.62-1.95-.91-10.68-1.21,2.45.72-.17.65-4.68-.5-8.39-1.42-7.92-1.63-7.62-1.09-.87.08-4.81-.05l-4.86-1.5c-23.82-3.1-55.25-7.95-82.36-11.54l2,.75c-12.3-1.72-20.71-1.12-31.58-2.93-1.25.1-2.5.16-3.75.28,2.04-.2-2.13-.82,1.13-1.07-3.37.06-6.98-.14-10.47.15,2.07,0,4.13.05,6.2.15-4.33.39-9.08.37-10.57.14-2.3.29-3.1.53-2.97.62.12.1,1.17.09,2.56.1,2.79-.05,6.97.05,7.99.25,3.23-.27,5.67-.28,7.69-.16,2.02.11,3.62.35,5.21.63,3.18.53,6.27,1.11,12.5,1.51,7.72.43-.77-.56-.27-.77Z"/>
  <path class="cls-1" d="M149.83,107.86c-.8,0-1.42.02-1.9.05.67,0,1.29-.01,1.9-.05Z"/>
  <path class="cls-1" d="M354.09,135.92c.95.15,2.08.33,3.58.57,1.23.09-.72-.18-3.58-.57Z"/>
  <path class="cls-1" d="M133.05,108.33s0,0,.03,0c.02,0,.05,0,.09-.01-.05,0-.09,0-.12,0Z"/>
  <path class="cls-1" d="M127.01,110.19c1.13-.17,2.28-.26,3.42-.38l-.62-.17c-.94.17-1.87.33-2.8.55Z"/>
  <path class="cls-1" d="M389.59,144.12l.1-.25c-.32,0-.48.05-.1.25Z"/>
  <path class="cls-1" d="M464.56,202.02l-.96-1.91c.27.62.62,1.29.96,1.91Z"/>
  <path class="cls-1" d="M353.76,329.87c-3.15-.72-6.82-1.55-10.29-2.34-3.47-.76-6.76-1.4-9.12-1.77l.51-.15c-3.37-.71-14.36-2.87-7.45-.74l1.75.18c8.04,1.53,5.67,1.84,11.83,3.53,7.49,1.74,12.01,1.97,18.62,3.76,2.93.62,2.42.77,1.51.79,6.72,1.53,9.51,1.23,14.17,1.87.77,1.15,6.04,1.83,12.35,2.19,6.32.38,13.65.31,18.75.82,6.43-.29,15.12-.77,23.06-3.02-2.08.72-.19.31,2.02-.16,2.19-.58,4.69-1.24,3.9-.73.49-.42,2.13-1.12,4.35-1.88,1.1-.43,2.33-.91,3.62-1.42,1.29-.52,2.61-1.15,3.95-1.74,1.31-.63,2.58-1.34,3.79-1.99,1.18-.69,2.25-1.42,3.18-2.04,1.84-1.3,2.98-2.48,3.06-2.96.58-.38,1.06-.76,1.47-1.11.42-.34.77-.63,1.08-.88.62-.51,1.04-.85,1.34-1.1.56-.52.62-.62.72-.75.1-.13.24-.3.94-.99.34-.35.84-.82,1.51-1.51.64-.72,1.46-1.65,2.52-2.86.11.12-1.27,1.78-1.8,2.46.88-.93,1.61-1.8,2.25-2.62.58-.87,1.08-1.69,1.57-2.48.25-.39.49-.77.74-1.16.23-.39.46-.79.7-1.19.49-.79,1.04-1.58,1.73-2.41,1.21-2.28,1.8-3.56,2.1-4.24.28-.69.23-.81.14-.79-.18.02-.62.48.34-2.41,1.07-2.44,1.65-4.16,2.17-5.36.46-1.23.72-1.99.99-2.6.26-.61.5-1.08.79-1.74.27-.67.61-1.54,1.11-2.95-.2-.54.04-2.37.42-4.7.32-2.34.71-5.22.72-7.84-.09.64-.26,2.78-.56,4.14-.26,1.36-.44,1.96-.25-.41.23-1.53.29-2.84.41-3.97.11-1.13.13-2.09.15-2.94.03-1.69.04-2.89-.06-4.08-.15-2.37-.27-4.63-.79-10.36.17-2.94.39-.07.55,2.26.07,2.34.15,4.14.19-.94.85,7.29.53,12.86.76,16.83.45-4.93.52-10.43.13-16.02-.38-5.59-1.25-11.24-2.41-16.5-1-5.9.92,2.93.13-1.7-.92-5.28-2.14-9.23-3.42-12.85-.61-1.82-1.32-3.53-1.94-5.33-.68-1.78-1.32-3.62-2.01-5.64.35.5.68,1,1,1.51-.55-1.18-1.31-2.85-2.11-4.86-.87-1.98-1.79-4.31-2.93-6.71-2.19-4.83-4.93-10.08-7.69-14.2.48,1.2.79,1.97,0,.92.47-.19-1.41-3.1-4.27-6.81-2.83-3.74-6.71-8.18-9.85-11.92.03.51-1.64-.9-3.95-2.81-2.31-1.92-5.35-4.23-7.76-5.97-1.56-1.4-1.06-1.35-.94-1.47,3.8,3.08,5.73,4.43,7.49,5.64.87.61,1.72,1.16,2.71,1.89.95.77,2.09,1.67,3.49,3.04-4.59-4.61-12.84-11.56-17.95-14.07.73.24,1.43.51,2.14.79-3.75-2.5-5.63-3.21-7.51-3.98-.93-.39-1.87-.8-3.11-1.35-1.23-.57-2.71-1.37-4.8-2.43l1,.06c-8.56-4-18.27-7.5-27.72-10.12-9.45-2.66-18.63-4.48-26.13-5.44-1.34.05,6,2.16,6.33,2.49,8.86,1.53,14.03,2.26,20.75,3.83l-.25.53c1.61,0,9.61,2.21,5.31.57,5.46,1.42,3.92,1.73,10.11,3.57-.71.37-4.35-.82-4.56-.37,1.78.54,3.59,1.01,5.36,1.61-1.73-.41,3.05,1.39,1.37.99,4.94,1.54,8.21,3.09,11.41,4.82.8.44,1.6.88,2.42,1.33.82.45,1.64.97,2.52,1.47,1.78.99,3.68,2.19,5.96,3.54-.8-.57-1.65-1.07-2.47-1.61-.83-.53-1.65-1.08-2.51-1.56.22-.3,3.12,1.48,5.33,2.79,1.07,1.02,1.98,1.73,3.14,2.64,1.12.97,2.59,2.02,4.62,3.83,3.76,2.77,6.16,4.09,10.46,8.84-.35-.14-.08.28.49,1.04.56.77,1.43,1.87,2.35,3.03.89,1.19,1.81,2.45,2.53,3.49.7,1.05,1.18,1.9,1.25,2.22.32.19.96.89,1.7,1.88.72,1,1.58,2.27,2.41,3.53.79,1.29,1.58,2.57,2.2,3.57.61,1.01,1.05,1.74,1.24,1.89.44.73.92,1.54,1.37,2.34.42.82.83,1.63,1.18,2.34.7,1.43,1.11,2.53.95,2.59-.22-.44-.73-1.32-1.24-2.25.52,1.01,1.01,2.02,1.48,3.06-.2-.26-.2-.13-.38-.48,1.27,2.74,1.74,2.56,3,6.31-.17.04-.99-1.93-1.77-3.48.81,1.85,1.59,3.58,2.36,5.22.72,1.66,1.49,3.22,2.14,4.77,1.33,3.1,2.47,6.12,3.14,9.44.74,1.17,3.04,10.27,3.18,8.16.16,1.27.05,1.69.1,2.63.07.94.24,2.4.89,5.76,1.17,3.8.97,7.58,1.67,12.73-.54-3.42-.61-3.42-.64-3.31-.03.1-.04.31-.66-2.65.32,4.6,1.64,11.45,1.13,19.53-.17.82-.33.78-.51,1.6-.04,1.49,0,3.12-.09,4.72-.15,1.59-.31,3.18-.81,4.57l.46-.29c-.31,1.34-.58,2.82-.94,4.36-.19.77-.39,1.55-.59,2.34-.1.4-.2.8-.3,1.2l-.37,1.19c-.25.79-.5,1.59-.76,2.38-.26.79-.59,1.55-.89,2.31-.59,1.52-1.25,2.96-1.91,4.27-.55,2.25-1.43,4.36-2.22,6.54-2.59,3.85-5.73,8.19-9.25,11.96-3.5,3.78-7.29,7.01-10.28,9.2-.71.48-1.6.88-2.44,1.34-.86.43-1.69.92-2.49,1.23-1.57.67-2.76,1.14-2.78,1.05.69-.39,1.86-1.05,3.22-1.81-1.13.53-2.34,1.05-3.54,1.57-1.22.49-2.47.91-3.63,1.36-1.16.45-2.3.77-3.27,1.17-.49.19-.94.38-1.35.56-.42.17-.79.33-1.11.51-2.45.78-3.39.92-4.18.92-.79.02-1.43-.02-3.3.34-1.25.33-2.66.66-4.19.97-1.53.25-3.17.5-4.86.7-3.39.35-6.99.55-10.37.57-6.76.08-12.59-.3-14.21.26,4.24.29,12.35.84,20.49.18-2.14.29-.43.46-3.46.67-2.04.13-3.84.11-5.51.13-1.67-.06-3.22-.11-4.77-.16-3.09-.18-6.18-.36-10.26-.6l1.02-.79c-6.92-.99-13.54-1.6-19.78-2.44-6.23-.85-12.08-1.95-17.22-3.91Z"/>
  <path class="cls-1" d="M454.63,323.29c-.83.52-1.72.95-2.57,1.42l-1.29.69c-.43.22-.89.41-1.33.62l.72.03c.79-.43,1.52-1,2.28-1.45.74-.48,1.51-.88,2.19-1.32Z"/>
  <path class="cls-1" d="M450.16,326.05c-1.03.61-2.01,1.22-2.92,1.8,1.14-.61,2.21-1.22,3.11-1.8h-.19Z"/>
  <path class="cls-1" d="M330.83,324.28c-1.26-.34-3.73-1-6.25-1.5,1.62.49,4.94,1.33,6.25,1.5Z"/>
  <polygon class="cls-1" points="324.08 322.94 326.92 323.76 327.37 323.76 324.08 322.94"/>
  <path class="cls-1" d="M155.67,282.46c-3.08-.76-6.17-1.52-9.24-2.35-.76-.39-3.72-1.33-6.07-2.1-2.34-.78-4.05-1.42-2.33-1.07-2.78-.62-7.04-2.05-10.09-3.09-3.04-1.06-4.89-1.65-2.88-.44,13.19,4.58,29,9.74,45.5,14.47,16.5,4.73,33.69,9.05,49.48,12.46l-5.12-.86c16.48,3.27,22.19,6.1,35.67,7.73l-1.93.32c7.45,1.91,14.58,2.22,22.23,4.73l-.69-.46c2.07.46,2.86.78,4.96,1.25l-.8-.32c5.52.93,8.88,1.72,14.24,3.13.32.31-2.55-.47-4.24-.78,2.43.79,6.78,1.25,10.98,2.21,3.25.95-.12.32-.59.32,12.67,2.53,18.21,4.61,27.36,5.63.9.01-3.17-1.14,1.43-.14-8.23-2.3-15.05-3.42-22.69-4.86l2.1.48c-6.25-.33-4.51-1.27-14.28-3,2.65.15,6.85,1.11,8.58,1.26-10.97-3.32-16.1-2.98-23.24-5.66l.82.15c-1.63-.47-4.63-.94-7.18-1.41.8.32,3.28.95,4.94,1.42-2.58-.47-3.98-.31-4.88-.31-2.76-1.11-3.85-.63-8.35-1.88-1.52-.79,3.89.47,5.64.62l-5.54-.94c-5.02-1.1-4.84-1.59-7.26-2.38-4.33-.64,2.42.79-1.11.47-5.23-1.72-28.23-6.9-39.19-9.23,3.76.87,1.43-.11,5.96,1.06-1.62-.48-7.52-1.72-7.65-1.41-7.61-1.57-17.1-4.25-24-6.44l1.94.87c-3.01-.51-6.7-1.6-10.92-2.94-4.23-1.3-9-2.86-14.21-4.23l.21.07c-3.35-.88-6.41-1.02-12.43-3.03,1.81.14,5.06,1.17,4.85.69Z"/>
  <path class="cls-1" d="M119.54,271.11l3.46.76c-3.61-1.38-8.31-2.56-7.64-1.98,2.46.87,5.6,2.2,6.12,2.11-.38-.21-.28-.35-1.93-.88Z"/>
  <path class="cls-1" d="M53.9,241.18c-1.28-.6-1.03-.26-1.63-.44,3.34,1.87,6.87,3.87,10.45,5.69,1.78.93,3.56,1.86,5.29,2.76,1.76.87,3.48,1.71,5.14,2.53,1.66.82,3.25,1.61,4.75,2.35,1.51.71,2.93,1.38,4.23,1.99,2.59,1.23,4.67,2.27,6.02,2.97,4.68,2.16,5.8,1.95,11.84,4.29l2.52,1.54c1.68.5,4.92,1.95,7.4,2.86,2.46.94,4.09,1.49,2.47.46-.33-.22-2.98-.72-5.7-1.97l.55-.07-6.42-2.52,2.17.52c-2.13-1-3.6-1.59-4.78-2-1.16-.43-2.03-.67-2.97-.92-1.86-.53-4.01-1.07-9.21-3.6l.35-.58c-3.5-1.61-6.14-2.83-8.67-3.99-2.5-1.23-4.88-2.46-7.83-4.14,0,0-.21.27,1.04.74,1.12.59,2.49,1.57,1.61,1.36-10.7-4.72,1.78.49-5.36-3.45-2.25-1.06-5-2.38-7.92-3.82-2.89-1.51-5.95-3.17-8.88-4.77-5.78-3.34-11-6.55-13.12-8.33,3.71,2.88-2.38-.5-7-3.65-1.96-1.67,1.66.7,2.56.99-2.15-1.46-3.74-2.88-5.92-4.26,2.54,2.23.45,1.38-4.64-1.91,2.66,1.99,5.24,3.8,7.79,5.52,2.56,1.69,5.15,3.18,7.7,4.71,2.54,1.56,5.19,2.93,7.86,4.45,1.33.76,2.68,1.53,4.06,2.32,1.39.76,2.81,1.55,4.25,2.37Z"/>
  <path class="cls-1" d="M50.19,239.74c1.2.65,1.76.9,2.08,1-1.57-.88-3.17-1.75-4.6-2.65.83.56,1.66,1.12,2.52,1.65Z"/>
</svg>