<?xml version="1.0" encoding="UTF-8"?>
<svg id="OBJECTS" xmlns="http://www.w3.org/2000/svg" viewBox="0 0 503 500">
  <defs>
    <style>
      .cls-1 {
        fill: #fff;
      }
    </style>
  </defs>
  <path class="cls-1" d="M96.41,316.6c-.17-.02-.21-.13-.23-.2,0-.04,0-.09,0-.12,0-.06.02-.12.03-.17.03-.1.06-.2.09-.29.07-.19.14-.37.22-.55.15-.36.32-.71.48-1.06.33-.7.68-1.39,1.03-2.08l.25-1.48-1.18,2.81-.55,1.43-.25.73c-.04.12-.08.25-.11.38-.02.07-.03.13-.04.21,0,.04,0,.08,0,.14,0,.02.02.23.24.24Z"/>
  <path class="cls-1" d="M106.97,297.35l3.48-7.07c-3.14,3.46-.03-1.81-6.45,8.76-1.84,3.93-5.71,12.68-4.72,11.76,1.31-2.81,2.95-7.09,5.19-11.12-.59,1.91-2.87,6.29-3.5,8.59,3.66-6.48,1.84-4.34,5.72-11.53l.29.62Z"/>
  <path class="cls-1" d="M110.22,288.52c-.15.74-.32,1.5-.12,1.47.16-.76,1.72-4.29.12-1.47Z"/>
  <path class="cls-1" d="M112.34,284.22c2.36-4.39.35.27.64-.14l1.97-5.38-2.61,5.52Z"/>
  <path class="cls-1" d="M122.08,265.91c.37-.74.7-1.42,1.04-2.1-.48.64-.71,1.29-1.04,2.1Z"/>
  <path class="cls-1" d="M126.81,256.86c-1.2,1.68-2.27,4.02-3.69,6.95.06-.08.11-.14.19-.26,1.54-2.41.76.21-1.54,4.22-2.15,4.32-2.43,3.69-4.07,7.55l3.08-4.85c3.49-6.72,4.83-10.89,6.04-13.6Z"/>
  <path class="cls-1" d="M122.08,265.91c-.39.76-.79,1.54-1.24,2.4.65-1.02.97-1.76,1.24-2.4Z"/>
  <polygon class="cls-1" points="117.14 275.08 116.04 277.4 116.53 276.97 117.14 275.08"/>
  <path class="cls-1" d="M134.84,241.9c.09,1.37-5.86,10.65-5.98,12.11,3.16-5.94,6.19-10.38,5.86-8.91l3.35-6.63c.94-2.28-1.07.18-3.23,3.43Z"/>
  <path class="cls-1" d="M143.73,230.28c.2-.44.47-.96.79-1.52-.4.7-.73,1.31-.79,1.52Z"/>
  <path class="cls-1" d="M163.06,198.15c-3.02,4.93-6.03,9.87-8.97,14.84.69-1.48.12-1.08,2.24-4.42-4.3,6.36-4.45,7.44-7.92,12.74-.81.62.69-1.75,2.07-3.92,1.39-2.17,2.7-4.14,1.44-2.78-2.42,3.75-5.99,9.4-7.36,12.77-1.39,1.92-2.75,3.85-4.08,5.8l1.89-1.68c1.65-2.32,2.52-5.23,3.9-6.46.75-.59-.71,1.89-1.71,3.64,2.25-3.98,7.11-10.26,12.13-18.05,5.36-8.2,3.09-6.96,6.37-12.49Z"/>
  <polygon class="cls-1" points="164.15 198.04 165.01 197.28 164.24 197.72 164.15 198.04"/>
  <path class="cls-1" d="M173.89,181.79l-4.65,7.78c-.6.77-1.03,1.13-1.5,1.58.35-.21-.77,1.98-.43,1.74,2.88-3.05,5.99-9.28,8.57-13.38,7.34-10.53,0,.7,3.3-3.12-2,2.99-2.22,3-5.02,7.13,5.02-6.08,9.83-14.74,12.36-19.09-.85,1.19-1.22,1.38-2.67,3.76l2.63-4.52c-3.38,4.26-5.96,8.07-12.58,18.12Z"/>
  <path class="cls-1" d="M164.88,195.19c1.84-2.81,2.58-3.83,2.82-4.01-.64.62-1.39,1.49-2.82,4.01Z"/>
  <path class="cls-1" d="M187.96,162.11c-.33.46-.82,1.27-1.45,2.33.36-.52.82-1.19,1.45-2.33Z"/>
  <path class="cls-1" d="M184.5,166.02c1.16-1.77,2.33-3.53,3.46-5.32l-1.59,1.94c-.44.76-2.09,3.41-1.87,3.38Z"/>
  <path class="cls-1" d="M344.88,13.64c-.28-.17-.98-.33-2.23-.46-1.24-.15-3.03-.25-5.46-.29.3-.17,2.01-.21,4.03-.17,1.01.03,2.09.07,3.1.11,1.01.06,1.95.1,2.69.11-6.37-.8.15-.43-1.44-.93-3.59-.32-6.2-.29-8.86-.25-2.66.08-5.39.16-9.24.28.38-.12.25-.28-.76-.37-4.63.32-10.85,1-16.99,1.99-6.14.95-12.19,2.27-16.6,3.26-4.23,1.05-7.87,2.18-11.43,3.77-3.54,1.64-7.02,3.64-10.86,6.46-3.22,2.24-6.22,4.83-9.12,7.53-2.86,2.75-5.57,5.69-8.17,8.76-5.13,6.18-9.8,12.84-14.09,19.81-8.63,13.93-15.96,28.96-23.39,44.2l-1.4,4.66c-1.02,1.32-3.46,7.28-3.48,6.21.88-1.62,1.57-3.26,2.52-5.27-1.84,3.14-3.89,7.49-6.05,12-2.19,4.49-4.45,9.16-6.68,12.9.59-.81,1.83-1.76.67.6-.2-.5-1.4,1.79-2.9,4.37-1.51,2.58-3.2,5.51-4.27,6.37-4.69,7.33.47.66-4.38,8.34-.06,1.09,4.72-7.32,5.87-8.55-1.13,2.63-4.38,6.97-3.73,6.87,3.9-6.17,9.05-15.26,14.04-25.51,5.02-10.24,9.77-21.59,14.52-31.64l-.61,2.31c2.31-5.19,5.51-11.91,8.87-18.21,3.35-6.31,6.88-12.19,9.54-15.87-.73.8,1.45-2.76,3.73-6.31,2.26-3.57,4.68-7.09,3.79-6.68,1.85-2.2,2.31-2.94,4.85-6.12.14-.36.29-.71.44-1.06,1.82-2.26,2.68-3.12,3.64-4.03.47-.46.96-.94,1.6-1.62.65-.67,1.48-1.51,2.6-2.72-1.62,1.44-1.64,1.26-1.11.51.26-.37.66-.89,1.06-1.42.42-.51.84-1.03,1.12-1.43,5.67-5.12,13-10.19,19.15-12.75-.26.05-.55.11-1.04.27-.47.18-1.14.47-2.18.96,1.01-.53,1.7-.94,2.21-1.23.52-.27.83-.47,1.04-.63.43-.32.46-.49.98-.81.98-.51,1.73-.76,2.28-.93.55-.16.9-.23,1.12-.22.44,0,.36.25.31.42,3.74-1.36,6.54-2.31,9.07-3.22,2.55-.85,4.88-1.6,7.91-2.03l-2.21.02c4.11-.95,7.94-1.51,11.89-1.98,3.95-.46,8.01-.83,12.64-1.21,2.25.17.35.36-2.57.7-2.92.3-6.86.82-8.74,1.19.94-.05,2.4-.2,3.78-.31,1.38-.09,2.69-.17,3.32-.13,3.91-.69,10.49-1.44,15.42-1.68-2.34.32-.57.5,2.17.6,2.74.14,6.45.33,8.02.49Z"/>
  <path class="cls-1" d="M319.27,14.22c-1.11.2-2.05.38-2.6.5.89-.12,1.71-.26,3.05-.35.12-.09-.08-.13-.45-.15Z"/>
  <path class="cls-1" d="M344.88,13.64s.17.06.19.08c.91.04.61,0-.19-.08Z"/>
  <path class="cls-1" d="M291.95,17.21c.35-.08.8-.21,1.18-.28.52-.12.96-.23,1.48-.35-.89.21-1.78.4-2.66.64Z"/>
  <path class="cls-1" d="M285.95,21.09c-1.68.48-3.97,1.17-6.48,2.29.38-.08.74-.15,1.61-.49.87-.38,2.3-.86,4.87-1.79Z"/>
  <path class="cls-1" d="M244.83,57.24c-.91,1.48-.25.72-.81,1.81,2.01-2.95,2.58-4.02.81-1.81Z"/>
  <path class="cls-1" d="M329.36,13.72c2.33-.11,4.66-.18,7-.19.86-.04,1.72-.03,2.57-.05-3.19-.04-6.39.07-9.57.23Z"/>
  <path class="cls-1" d="M402.04,106.16c.69-3.06,1.18-6.9,1.53-10.94.32-4.04.47-8.27.57-12.13-.04-1.77-.09-3.13-.15-4.17-.08-1.04-.17-1.77-.24-2.29-.15-1.03-.29-1.23-.43-1.4-.14-.17-.27-.32-.42-1.26-.08-.47-.16-1.13-.25-2.1-.11-.96-.24-2.22-.42-3.88l1.27,2.18c-.64-6.67-1.98-14.77-4.77-22.16-1.37-3.7-3.05-7.21-4.9-10.3-1.88-3.07-3.94-5.7-5.87-7.76-.54-.85-1.96-2.75.41-.19-2.85-3.47-4.11-3.85-5.44-4.58-.71-.32-1.42-.78-2.61-1.47-.6-.34-1.28-.8-2.15-1.32-.9-.48-1.89-1.17-3.2-1.83,1.28.51,2.12.99,2.73,1.24.6.27.93.39,1.05.42.25.03-.31-.39-1.1-.93-.4-.27-.84-.58-1.27-.87-.44-.27-.87-.53-1.2-.75-.65-.44-.92-.7-.16-.51l1.61.71c-3.37-1.78-7.53-3.31-11.47-4.36-3.94-1.07-7.63-1.7-10.08-2.16-.13.11.86.47,1.06.65.19.2-.38.13-3.67-.32,2.64.45,1.53.59,1.25.83,3.4.39,5.99.92,8.22,1.45,2.23.53,4.11,1.06,6.12,1.56,3.45,1.64-2.43-.77,1,.86l1.31.39,1.28.46c.86.3,1.72.6,2.55.97,3.52,1.85-3.83-1.51,1.68,1.32.18.04.59.22,1.17.5.58.28,1.35.64,2.17,1.17.83.51,1.77,1.08,2.68,1.81.45.36.96.7,1.39,1.1.44.4.88.81,1.32,1.22l-1.1-.84c2.87,2.26,5.77,6.81,5.17,4.96.78,1.27,1.4,2.63,2.07,3.94l-.09-.85c2.76,4.34,4.03,7.68,5.34,11.34,1.27,3.68,2.55,7.74,4.13,14.19-.55-3.14.29-.35.68,1.32-.39-2.76-.84-4.42-1.38-6-.26-.8-.52-1.58-.86-2.46-.34-.88-.64-1.9-1.11-3.13.22-.93,3.22,7.56,1.61,1.34,1.65,6.85,3.09,13.01,2.44,16.11.44,4.2.75,7.1.92,10.04.2,2.94.26,5.91,0,10.22l-.13-.26c.59,1.62-.58,6.99-.64,13.42.23-1.51.41-3.02.6-4.53.24.24.09,2.45-.24,5.54q-.06-.36-.31.63c.2.49-.02,3.17-.31,5.87-.3,2.71-.71,5.44-.75,6.05.8-4.05,1.15-9.1,1.55-13.9,0,2.46.51,1.78-.12,5.81Z"/>
  <path class="cls-1" d="M381.26,25.01c.73.5,1.53.94,2.2,1.5-.4-.36-.82-.67-1.21-.91-.38-.25-.72-.46-.99-.59Z"/>
  <path class="cls-1" d="M393.21,143.9c-1.55,5.24.01-1.52-1.57,3.33-1.19,5.42,2.38-5.94,1.38-.58-1.17,3.15-2.24,8.5-2.9,10.64.45-2.44-.57-1.25-.98-.35-.43,2.07-2.16,6.47-3.3,9.89,3.11-8.27-2.08,7.12.81-.31.19.67-2.19,8.67-3.6,11.75-.17-.32.78-2.88,1.49-5.01.11-1.88-2.08,5.22-2.95,6.25-1.05,4.09-3.91,12.45-6.14,18.91-2.22,6.46-3.74,11.06-1.81,7.7,1.25-2.62,1.87-5.02,2.94-7.96-3.33,8.11-.59-.15-.52-.92,1.49-3.42,3.37-9.57,3.24-8.05l-1.66,5.7c3.44-8.86,7.28-19.44,10.82-30.5,3.55-11.06,6.78-22.6,9.18-33.27-.72,3.07-1.49,6.13-2.3,9.17-.02-1.14,1.08-5.48,1.72-8.89-.59,1.44-1.21,2.87-1.82,4.3.72-2.62,1.19-5.18,1.4-4.89.44-3.3-.09-1.87-.79,0,1.44-6.87,1.95-7.95,2.48-13.35-1.38,5.66-1.82,8.08-2.26,10.73-.48,2.63-.95,5.5-2.91,11.89l.03,3.82Z"/>
  <path class="cls-1" d="M398.66,118.89l-.17,2.83c.24-1.42.44-2.85.64-4.28l-.47,1.45Z"/>
  <path class="cls-1" d="M399.41,123.59c-.19.11.08-1.61-.11-1.5-1.22,5.34-.88,4.75.11,1.5Z"/>
  <path class="cls-1" d="M379.13,186.28l-2.31,6.66,1.73-4.26c-.19.05.32-1.57.58-2.41Z"/>
  <path class="cls-1" d="M363.01,233.13c3.61-9.13,4.85-13.12,9.27-23.29,1.52-5.25-1.78,2.01-1.35-.32-2.11,5.08-1.08,4.75-3.05,10.11-1.17,1.8-3.01,7.76-5.14,12.76.41-.55.6-.47.28.74Z"/>
  <path class="cls-1" d="M349.1,263.9c-.74,2.11-1.56,4.21-2.29,6.21-.76,1.99-1.41,3.9-2.15,5.52-.06-.56.76-3.12,1.84-5.59-1.23,1.39-1.71,4.66-3.79,9.06.21-.37.9-1.98.56-.66-2.13,5.64-2.58,7.28-3.19,9.34-.62,2.06-1.41,4.53-4.09,11.89-.56,2.19-1.27,4.31-.77,4.08-3.29,8.26-1.87,4.01-5.65,14,.35-.31,1.97-3.47,2.42-3.24-5.41,14.1-4.75,14.66-8.33,23.61.33-1.03.62-2.29,1.51-4.73-1.06.96-2.46,7.7-4.35,12.71l-.4-.69c-1.53,4.7-3.99,12.87-6.6,18.53l.21-1.42c-3.93,11.99-9.7,25.57-14.02,35.38-.91,1.71-1.88,3.37-2.82,5.06-1.48,3.39-1.86,4.24-1.58,3.8.3-.42,1.17-2.18,2.12-4.04,1.93-3.7,3.99-7.9,2.14-2.78-1.71.99-2.92,7.09-7.26,14.37-1.17,1.63-.14-.24.73-2.13.89-1.88,1.75-3.71.52-1.87-.17.96-.65,1.98-1.32,3.26-.7,1.27-1.61,2.8-2.62,4.8-.02-.56-1.11,1.51-2.23,3.31-1.1,1.81-2.09,3.42-1.65,2.07l-1.79,3.52-1.91,3.45-1.92,3.46-2.06,3.38c-.87.94-1.89,2.41-3.06,3.88-1.16,1.49-2.34,3.08-3.34,4.45,5.19-6.78-.78,2.38,5.22-5.13,4.01-5.75,8.99-13.65,13.68-22.21,4.7-8.55,9.18-17.71,12.81-25.64.12-2.03,4.45-10.27,4.9-13.1.37-.29,1.05-1.43,1.43-1.73,4-10.51-1.34,2.31-.59-.34,1.74-4.6,3.55-8.15,3.65-7.63,2.9-7.51.14-.9,1.21-4.88l2.6-4.64c4.21-11.85,8.7-25.73,13.3-40.02,4.61-14.29,9.4-28.98,14.57-42.29l-1.22,1.86c1.17-3.02,2.22-5.81,3.15-8.47.96-2.65,1.92-5.14,2.7-7.63,1.63-4.97,3.41-9.71,6.03-14.84l1.05-3.79c-.56,2.07,1.54-1.8.6,1.47,1.15-3.32,2.73-6.73,3.95-10.17l-2.64,5.9c1.29-4.35,3.41-8.87,4.33-10.14,3.15-9.15-2.97,5-4.17,6.82-2.11,6.48-3.6,9.57-5.11,12.59-1.5,3.01-3.08,5.96-5.15,12.15-2.64,7.63.78-.62.81-.07Z"/>
  <path class="cls-1" d="M356.46,248.7c.27-.78.47-1.4.61-1.88-.23.66-.43,1.27-.61,1.88Z"/>
  <path class="cls-1" d="M271.97,445.84c-.6.82-1.39,1.7-2.39,2.94-.75,1.05.56-.53,2.39-2.94Z"/>
  <path class="cls-1" d="M362.73,232.39s0,0-.02.03c0,.02-.02.05-.03.09.02-.04.04-.09.05-.12Z"/>
  <polygon class="cls-1" points="364.01 225.9 362.64 229.26 363.09 228.76 364.01 225.9"/>
  <path class="cls-1" d="M244,471.26l.12.24c.23-.24.3-.38-.12-.24Z"/>
  <path class="cls-1" d="M146.8,473.55l1.87,1.17c-.57-.4-1.24-.81-1.87-1.17Z"/>
  <path class="cls-1" d="M195.07,246.93c2.95-6.07,7.19-13.97,9.4-18.46l-.02.55c.85-1.59,2.73-4.92,3.87-7.08,1.16-2.14,1.53-3.15-.7-.09l-.77,1.68c-4.12,7.52-3.62,5.09-7.12,10.82-3.84,7.12-5.1,11.69-8.54,17.95-1.36,2.82-1.39,2.26-1.16,1.34-3.25,6.41-3.74,9.28-5.72,13.78-1.33.47-3.52,5.54-5.94,11.67-2.43,6.13-5.08,13.32-7.66,17.99-2.38,6.28-5.8,14.58-8.43,22.73,1.12-4.44-2.85,7.53-2.72,5.58.13,1.34-2.11,7.06-4.23,12.72-2.12,5.65-4.12,11.23-3.68,12.19-4.22,10.8-.06.48-4.81,13-.15-.08.6-2.19.86-3.04-1.03,2.45-1.55,4.43-2.06,6.28-.54,1.84-1.09,3.57-2.17,5.5-3.92,9.96-.26,1.83-2.18,7.91-4.18,10.34-3.24,7.33-5.98,12.9.31,1.19-2.31,7.3-3.61,12.62.42-1.29,3.01-8.43,1.66-3.63-2.12,6.11-2.66,8.65-3.2,11.07-.45,2.44-.99,4.76-2.02,10.68-.89,2.93-.44-.03.09-2.42.25-1.2.49-2.25.5-2.37,0-.12-.27.69-.95,3.26,1.16-7.57,2.96-13.13,3.66-17.22-1.61,4.9-3.18,10.42-4.29,16.17-1.15,5.73-1.74,11.71-1.54,17.34.12,6.27-.48-3.19-.38,1.74.04,5.64,1.26,9.93,2.83,13.63,1.6,3.71,3.66,6.83,6.28,10.42-.48-.4-1.02-.77-1.46-1.22,1.83,2.04,5.03,5.84,9.45,9.24,4.39,3.42,9.89,6.39,14.76,8.17-1.15-.7-1.89-1.16-.58-.75-.27.42,3.1,1.77,7.84,2.99,4.74,1.26,10.82,2.26,15.83,3.22-.36-.38,1.92-.29,5.06-.24,3.14.06,7.15.11,10.25,0,2.19.15,1.74.41,1.71.58-2.56-.04-4.45-.04-5.98-.04-1.53.04-2.71.06-3.82.14-1.11.09-2.16.14-3.44.16-1.28.05-2.79-.02-4.83-.19,3.39.29,7.87.68,12.26.76,4.38.09,8.67-.11,11.59-.61l-2.28.68c2.35-.15,4.03-.34,5.38-.61,1.35-.23,2.37-.49,3.39-.77,1.03-.26,2.06-.51,3.44-.83,1.38-.28,3.11-.62,5.51-1.07-.28.2-.57.39-.86.58,4.81-1.12,9.76-2.69,14.49-4.9,2.36-1.11,4.67-2.34,7-3.5,2.24-1.34,4.48-2.67,6.64-4.05,8.54-5.74,15.68-12.57,20.64-18.74.7-1.2-5.24,4.11-5.7,4.2-1.65,1.65-3.11,3.14-4.46,4.54-1.38,1.35-2.71,2.53-3.95,3.71-.63.58-1.23,1.17-1.86,1.72-.65.53-1.29,1.05-1.93,1.57-1.31,1.03-2.58,2.15-4.07,3.17l-.23-.54c-.58.59-2.68,2.07-4.11,3.12-.71.53-1.26.94-1.38,1.07-.12.13.26.07,1.31-.51-.6.43-1.14.74-1.62.99-.47.25-.88.46-1.24.63-.72.34-1.27.55-1.84.78-1.15.44-2.35,1-5.36,2.53.14-.38,1.1-1.02,2.01-1.61.91-.59,1.73-1.21,1.65-1.44-.84.5-1.68.97-2.54,1.41l-1.28.68-1.31.61c1.61-.89-3.29,1.08-1.72.22-4.89,2.18-8.6,2.98-12.32,3.64-3.75.6-7.56,1.01-13.09,1.57l3.08-.19,3.08-.29c0,.33-3.53.73-6.21.99-3.06-.32-4.86-.09-10.57-.42-2.45.05-4.38.17-6.52.15-1.07.01-2.2-.02-3.47-.12-1.28-.08-2.69-.24-4.35-.51.38-.1-.12-.28-1.08-.5-.96-.26-2.4-.56-3.9-.91-3.01-.72-6.29-1.72-6.8-2.15-.38.04-1.34-.16-2.59-.5-1.24-.34-2.74-.89-4.21-1.43-2.94-1.14-5.69-2.54-6.19-2.57-3.26-1.46-7.25-4.28-7-4.55.44.26,1.29.86,2.26,1.39-1.01-.59-1.92-1.33-2.88-1.99.31.13.24.02.59.24-1.29-.88-1.92-1.33-2.69-1.82-.77-.48-1.55-1.15-2.93-2.64.07-.05.51.29,1.1.8.29.25.62.54.97.84.35.29.74.56,1.09.83-3.18-2.65-5.81-5.14-8.02-7.82-2.21-2.68-3.93-5.56-4.84-8.91-.1-.15-.24-.41-.4-.77-.13-.37-.3-.82-.48-1.32-.39-.99-.71-2.22-1.02-3.35-.57-2.26-.97-4.15-1.17-3.06-.05-1.33.14-1.76.19-2.73.02-.49.06-1.11.07-2.06,0-.47,0-1.03-.01-1.68,0-.66.02-1.42.03-2.31-.42-4.13.76-7.91,1.4-13.29-.35,3.6-.29,3.61-.24,3.51.05-.1.12-.3-.04,2.84.45-2.37.75-5.35,1.37-8.76.6-3.41,1.42-7.25,2.69-11.28.38-.79.54-.71.92-1.51.75-3.06,1.46-6.66,2.94-9.39l-.51.23c2.1-5.37,4.9-12.93,7.56-18.57l1.88-7.07c2.11-4.42,3.94-9.84,5.6-15.03,1.64-5.2,3.02-10.23,3.97-13.98.61-1.68,1.4-3.77,2.06-5.42.66-1.66,1.18-2.88,1.25-2.85-.22.8-.6,2.16-1.04,3.74,1.79-4.93,4.39-10.8,4.82-13.8,1.69-5.11,1.78-3.54,3.29-7.26,1.5-5.25,4.55-12.69,7.3-19.22,2.74-6.54,5.19-12.16,5.2-13.95-1.76,4.09-5.26,11.8-8.32,19.75.67-2.15-.23-.61.91-3.56,3.12-7.93,5.26-11.79,8.42-19.72l.4,1.27c6.58-13.05,10.42-25.96,16.82-35.55Z"/>
  <path class="cls-1" d="M153.26,347.64l2.48-5.7-.57.48c-.58,1.82-1.22,3.65-1.91,5.21Z"/>
  <path class="cls-1" d="M155.16,342.43c.39-1.2.73-2.37,1.04-3.46-.46,1.28-.88,2.51-1.19,3.6l.15-.14Z"/>
  <path class="cls-1" d="M207.01,225.41c.75-1.14,2.2-3.37,3.58-5.67-1.06,1.41-2.98,4.43-3.58,5.67Z"/>
  <polygon class="cls-1" points="210.62 219.2 208.83 221.73 208.67 222.16 210.62 219.2"/>
  <path class="cls-1" d="M318.96,243.27c-.68,3.26-1.45,6.5-2.31,9.72-.74,1.61-4.14,12.36-3.38,8.76-1.36,5.79-6.35,17.69-3.85,13.5,2.39-6.9,5.15-14.37,7.72-22.42,2.54-8.04,4.96-16.66,5.81-25.78.42-4.55.41-9.21-.28-13.83-.66-4.61-2.08-9.14-4.2-13.26-2.11-4.13-4.88-7.85-8-11.07-3.13-3.21-6.56-6.01-10.13-8.35l2.33,1.46c.78.48,1.51,1.05,2.27,1.57-1.76-1.39-3.49-2.49-5.05-3.6-1.62-1.01-3.07-2-4.51-2.86-1.44-.86-2.76-1.71-4.14-2.38-.68-.35-1.34-.69-1.99-1.03-.67-.29-1.34-.58-2-.86-2.63-1.15-5.32-1.9-8.23-2.43-2.93-.4-6.12-.53-9.7.05l1.92-.79c-4.18-.03-8.13.95-11.86,2.32-3.74,1.41-7.29,3.2-11.16,5.04l.86-.16c-.96.58-1.67.93-2.35,1.33-.67.41-1.35.82-2.3,1.45l.83-.39c-2.38,1.77-4.22,3.28-6.05,4.79-.93.73-1.82,1.52-2.77,2.33-.97.8-1.95,1.68-3.03,2.65-.45.11,1.88-1.98,3.22-3.2-2.21,1.56-5.16,5.14-8.21,8.46-2.55,2.49-.22-.26.04-.69-4.49,5.12-7.61,8.95-10.32,12.47-2.65,3.56-4.88,6.82-7.06,11.12-.34.88,2.25-2.71-.39,1.45,2.6-3.63,4.85-6.97,7.11-10.19,2.23-3.24,4.47-6.36,6.98-9.58-.5.57-.97,1.15-1.44,1.74,1.65-2.83,2.52-3.72,3.76-4.92,1.27-1.18,2.85-2.72,6.42-6.51-1.71,2.19-4.78,5.49-5.8,6.99,4.29-4.17,7.24-7.23,10.01-9.79,2.75-2.56,5.28-4.7,8.86-6.41l-.71.51c.77-.43,1.74-1.18,2.89-1.87.56-.37,1.15-.75,1.74-1.13.6-.37,1.21-.7,1.8-1.04-.42.15-1.25.48-2.14.94-.89.47-1.88.99-2.67,1.41,1.15-.74,1.97-1.39,2.59-1.93.63-.54,1.09-.93,1.44-1.24.75-.25,1.34-.51,1.89-.77.56-.24,1.07-.5,1.63-.79,1.11-.61,2.48-1.24,4.87-1.9,1.8-.11-3.82,1.6-5.34,2.7,1.74-.91,3.56-1.67,5.41-2.37,1.31-.36,2.29-.63,3.08-.76.79-.11,1.38-.15,1.88-.17.99-.06,1.66.06,2.99.03,1.12-.21,1.52-.31,1.54-.34.02-.05-.34-.07-.73-.05-.77.01-1.68.02.15-.42.73,0,1.75.06,3.01.06.63-.02,1.31.08,2.05.13.73.08,1.52.07,2.34.23,3.3.38,7.19,1.4,11.06,2.98,3.88,1.57,7.68,3.76,11.07,5.98,3.4,2.21,6.42,4.45,8.63,6.41-1.5-1.37-1.88-1.48-2.3-1.7-.44-.2-.9-.54-2.82-2.06.7.54,2.26,1.82,3.71,2.9,1.39,1.16,2.66,2.14,2.79,2.03,3.02,2.76,6.06,6.39,8.3,10.42,2.26,4.02,3.64,8.4,4.29,12.15,0-.75-.14-1.48-.21-2.23,1.14,3.04,1.74,7.15,1.68,11.84-.05,4.69-.69,9.93-1.64,15.5l.05-.23c-.63,3.57-.5,6.83-2.54,13.19.15-1.89,1.12-5.34.63-5.09Z"/>
  <path class="cls-1" d="M306.97,281l.84-3.59c-1.53,3.73-2.66,8.66-2.08,7.95.82-2.59,2.25-5.83,2.16-6.37-.22.39-.36.29-.92,2.01Z"/>
  <path class="cls-1" d="M274.67,348.95c-.85,1.22-.46,1.01-.77,1.58,2.55-3.09,5.21-6.42,7.65-9.91,1.22-1.73,2.38-3.55,3.44-5.34,1.02-1.81,2.01-3.58,2.89-5.31,3.61-6.91,6.1-12.97,7.5-15.85,2.13-4.96,1.85-6.14,4.04-12.54l1.49-2.7c.96-3.54,5.18-13.85,3.12-10.39-.2.36-.72,3.11-1.9,5.99l-.08-.56-2.35,6.8.48-2.28c-1.9,4.53-2.27,6.23-2.73,8.2-.47,1.96-.97,4.23-3.45,9.76l-.59-.34c-1.58,3.72-2.8,6.5-4.06,9.14-1.28,2.63-2.57,5.12-4.51,8.13,0,0,.26.22.83-1.05.68-1.15,1.71-2.57,1.46-1.66-2.71,5.53-2.62,5.04-2.31,4.13.27-.94.76-2.26-1.55,1.34-1.26,2.31-3.04,4.98-5.03,7.77-2.02,2.76-4.28,5.62-6.5,8.31-4.45,5.36-8.55,10.18-10.47,12.29,1.64-1.79,1.44-1.19.4.41-1.06,1.57-2.84,4.23-4.43,6.6-.79,1.03-.64.6-.24-.2.42-.79,1.09-1.95,1.26-2.4-1.55,2.16-2.89,3.89-4.04,6.27.95-1.43,1.34-1.54,1.04-.68-.24.89-1.11,2.78-2.15,5.56,2.7-5.95,6.06-10.98,9.62-15.94,3.59-4.96,7.49-9.78,11.95-15.12Z"/>
  <path class="cls-1" d="M272.47,352.47c.9-1.1,1.26-1.63,1.43-1.94-1.21,1.44-2.43,2.89-3.56,4.24l2.13-2.3Z"/>
</svg>