<?xml version="1.0" encoding="UTF-8"?>
<svg id="OBJECTS" xmlns="http://www.w3.org/2000/svg" viewBox="0 0 503 500">
  <defs>
    <style>
      .cls-1 {
        fill: #fff;
      }
    </style>
  </defs>
  <g>
    <polygon class="cls-1" points="39.84 363.68 40.27 364.27 40.71 364.13 39.84 363.68"/>
    <path class="cls-1" d="M41.18,367.07l.94.75c.4-1.32.8-.4.1-2.36-.6-.36-1.94-1.09-2.12-.61.37.29,1.19.46,1.58,1.07-.45.02-.96-.54-1.52-.47.53,1.05.71.29,1.46,1.3l-.44.33Z"/>
    <path class="cls-1" d="M43.01,367.29c-.23.06-.45.11-.56.24.23-.06.81.2.56-.24Z"/>
    <path class="cls-1" d="M43.6,367.75c.48.6-.33.29-.33.39l1.15.13-.83-.51Z"/>
    <path class="cls-1" d="M45.69,370.15c.1.08.19.15.29.22.01-.17-.13-.18-.29-.22Z"/>
    <path class="cls-1" d="M46.8,371.26c0-.41-.39-.6-.81-.89,0,.02,0,.04,0,.07.12.48-.56.53-.92-.09-.58-.47-.14-.78-.83-1.02l.25.95c.82.82,1.85.79,2.31.99Z"/>
    <path class="cls-1" d="M45.69,370.15c-.1-.08-.2-.18-.3-.29.06.2.18.25.3.29Z"/>
    <polygon class="cls-1" points="44.68 368.91 44.33 368.69 44.22 368.92 44.68 368.91"/>
    <path class="cls-1" d="M48.54,373.19c-.68.35-1.16-1.46-1.74-1.23.7.76.83,1.73.37,1.84l.92.71c.46.1.57-.63.44-1.31Z"/>
    <path class="cls-1" d="M48.58,376.11c.1.02.19.05.27.11-.1-.07-.2-.13-.27-.11Z"/>
    <path class="cls-1" d="M53.31,379.64l-2.3-1.52c.35.03.46-.2.92.21-.69-.96-1.15-.76-1.73-1.55.33-.68,1.16,1.27,1.26.44-.46-.51-1.15-1.26-1.96-1.29l-.35-1.13-.33.78c.12.47,1.03.28.81.83-.16.32-.49.02-.75-.16.58.43.8,1.84,1.81,2.85,1.04,1.09,1.72.04,2.64.55Z"/>
    <polygon class="cls-1" points="52.75 380.26 52.63 380.59 52.86 380.23 52.75 380.26"/>
    <path class="cls-1" d="M55.39,381.81l-1.27-.74c-.05-.15.02-.32.06-.49-.09.16-.57.07-.64.21-.11.93,1.27,1.14,1.85,1.62,1.05,1.69-.34.18-.33,1.18-.35-.43-.23-.55-.7-1.16.2,1.42,1.73,2.1,2.38,2.55-.09-.21.03-.4-.3-.68l.7.46c-.13-.98-.48-1.61-1.76-2.95Z"/>
    <path class="cls-1" d="M53.77,379.94c.38.36.46.54.42.63.05-.22.04-.44-.42-.63Z"/>
    <path class="cls-1" d="M57.04,385.29c-.03-.09-.13-.19-.29-.3.04.09.12.19.29.3Z"/>
    <path class="cls-1" d="M57.14,384.16l.58.78v-.5c-.12-.08-.47-.41-.58-.28Z"/>
    <path class="cls-1" d="M81.82,412.07c.13-.27-.04-.61-.63-1.09.32-.21.99.51,1.46.67-.56-.86.31-.31.38-.74-.78-.78-1.47-.77-2.26-1.66.12-.04.22-.17.2-.37-1.19-.82-3.15-2.27-3.9-3.49-.84-1.05-1.66-1.64-2.8-2.58-3.22-3.62-6.91-7.09-10.12-11.21l-1.03-.07c.1-.43-.82-.93-.37-1.13.12.27.36.43.59.67-.26-1.25-2-2.18-2.71-3.33,0,.2-.33.78-.68.55.68-.45-1.05-1.18-.61-2.09-.7-1.16-.57.43-1.38-.71-.46.2.7,1.16.6,1.58-.58-.07-.71-1.06-1.04-.68,1.29,1.84,4.77,4.31,7.25,6.67l-.57.03c1.41,1.09,3.31,3.17,3.72,4.7.09-.53,1.59,2.06,2.12,1.2.14.48.26.55.63,1.07l.34-.09c.61.66.16.88.89,1.6-.16-.77.44-.32.9-.34.47,1.17,1.13,2.45,1.59,3.47.04-.15.08-.33-.04-.71.39.62.59.25.83.28.49.48.06.8-.16.97.77,1.02,1.9.7,2.32,1.61l.07-.54c.99.84,1.44,1.95,2.57,2.85.09.91-1.2-.46-1.8-.7.12.29.54.75.55,1.03.65.22,1.68.64,2.43.96-1,0,.35,1.23.69,1.6Z"/>
    <path class="cls-1" d="M78.71,409.51c-.19-.06-.35-.11-.46-.12.13.07.25.14.38.3.07-.04.09-.1.08-.18Z"/>
    <path class="cls-1" d="M81.82,412.07s0,.05-.02.07c.13.07.11.03.02-.07Z"/>
    <path class="cls-1" d="M76.97,405.23c.03.05.07.11.11.16.05.06.1.12.15.18l-.26-.34Z"/>
    <path class="cls-1" d="M74.82,405.83c-.09-.3-.25-.69-.44-1.11-.06.22-.09.4.44,1.11Z"/>
    <path class="cls-1" d="M69.13,399.13c-.24-.15-.23.05-.46,0,.36.42.59.46.46,0Z"/>
    <polygon class="cls-1" points="79.77 410.69 80.66 411.35 81.03 411.55 79.77 410.69"/>
    <path class="cls-1" d="M98.44,422.77c-.57-.9-1.9-1.39-2.83-2.12-1.92-1.01-.87.78-2.58-.38l.9-.65c-1.7-1.14-3.83-3.12-5.76-3.54-.04-.2-.21-.55.3-.33-1.07-.85-1.52.69-2.69-.79,1.73.64-.02-.84.77-1.02l.25.12c-.92-.71-2.29-1.48-2.82-2.04-.21.18,0,.94-.78.26.27.32-.06.43-.27.61.99.51,1.3,1.03,2.02,1.2.21.66-.38-.18-.16.48l.86.32c.42.48-.73-.16-.03.54.22-.08.97.28,1.53.81l-.25-.05c.54.28,1.07.95,1.23.32l.16.89.16-.38c1.15,1.14,1.03,2.29,3.02,3.18-.33-.4.17-.29.43-.19-.53-.75-1.05-.41-1.73-.88.15-.38,1.55.1.91-.71.58,1.04,1.68,1.21,1.47,2.28,1.04.84,1.74.73,2.74,1.67l-.11.1c.56-.41.77.86,1.99.81l-.53-.5c.17-.21.47-.04.9.17q-.1.06-.03.25c.37-.33,1.72.35,1.95.3-.52-.36-1.38-.41-2.09-.69.47-.04.58-.45,1.07-.07Z"/>
    <path class="cls-1" d="M86.43,416.11l.48.1c-.16-.08-.33-.13-.48-.1Z"/>
    <path class="cls-1" d="M103.54,426.03c.8.36-.35.32.38.76.94-.06-.78-.95.19-1.17.42.44,1.37.14,1.69.19-.42.21-.34.87-.2,1.02.37-.11,1.08.32,1.7.36-1.43-.5,1.22-.15-.05-.68.13-.34,1.37-.61,1.91-.42,0,.26-.44.29-.79.3-.27.55.91.21,1.2.62.65-.46,2.03-1.05,2.79-1.88.79-.79,1.05-1.52.28-1.55-.42.12-.55.49-.88.8,1.15-.55.36.49.35.74-.29.09-.62.28-.88.43-.26.13-.45.17-.42-.05.24-.22.43-.5.61-.75-.6.29-1.32.46-2.07.6-.77.09-1.58.14-2.41.05-1.67-.13-3.4-.65-4.94-1.21.43.2.87.37,1.31.54-.26.23-.91.03-1.45-.05.12.32.24.66.38.97-.38-.21-.8-.27-.66-.51-.61.09-.47.36-.28.72-1.1-.32-1.12-.69-2.13-.63,1.45,1.39,1.62.26,3.47,1.55.3-.25.6-.51.89-.78Z"/>
    <path class="cls-1" d="M99.63,424.85l.57-.15c-.23-.04-.47-.08-.69-.14l.12.28Z"/>
    <path class="cls-1" d="M100.99,423.65c-.05.16-.32.11-.37.27.71.46.71.21.37-.27Z"/>
    <path class="cls-1" d="M110.8,426.76c.37-.19.75-.34,1.09-.59-.26.09-.52.15-.78.18.08.15-.17.32-.31.41Z"/>
    <path class="cls-1" d="M114.69,420.25c-.19.64-.26,1.13-.5,1.59-.19.47-.55.91-1.21,1.32-.22.89.93.4,1,.95.38-.26.33-.57.29-.85-.06-.29-.11-.57.04-.96.25-.02.39-.3.52-.65.1-.37.15-.8.34-1.15-.19.04-.38-.03-.49-.24Z"/>
    <path class="cls-1" d="M116.5,415.29c-.06-.35-.2-.69-.32-1.01-.14-.31-.24-.61-.21-.91.28,0,.48.4.51.84.52-.41-.28-.75-.09-1.6-.04.08-.07.38-.25.21-.45-1.87-.75-.88-1.33-3.28-.29-.26-.43-.58-.78-.36-.09-1.47.19-.83-.14-2.53-.18.17-.42.9-.88,1.11-.42-2.39-1.17-2.04-1.45-3.58.11.13.32.24.46.62.51-.52-.73-1.02-1.05-1.79l.56-.25c-.49-.61-1.52-1.5-1.7-2.54h.37c-1.46-1.37-2.64-3.33-3.83-4.51l-.25-.94c-1.76-1.53,1.22,1.93-.51,1.15.72-.87-.99-.72-1.46-1.99-.04-.75,1,.88.97.04-.63.13-.56-.44-1.13-.87.51-.22-.86-1.17-.12-1.22l-2.33-1.23c-.02-.49-.53-1-.92-1.34.85,1-.84.25-.06,1.52,1.59,1.44,4,4.09,5.36,6.39.76-.2,1.02,1.37,1.74,1.37-.16.19-.2.47-.36.66,1.12,1.31.1-.56.56-.38.52.56.5,1.31.24,1.4.66,1.04.24,0,.92.29l-.23,1.12c1.15,1.52,2.5,3.3,3.65,5.29,1.15,1.98,2.12,4.16,2.47,6.31.14-.15.27-.3.4-.46.13,1,.6,1.73.9,2.52.17.39.26.79.27,1.21.03.42-.09.86-.38,1.3.14.21.29.42.42.64-.21-.34-.79.28-1.09-.25.1.52-.1,1.05-.1,1.59.17-.28.28-.59.4-.9.38.75-.15,1.47-.54,1.56,0,.74.25.65.63.28.31-.38.7-1.04.93-1.18-.29-1.19-.08-1.68.22-2.25.16-.28.29-.56.37-.92.07-.35.1-.78-.11-1.3-.52-1.27-.44.22-.72.17Z"/>
    <path class="cls-1" d="M115.3,417.95c.04.12.08.22.13.29-.03-.1-.07-.2-.13-.29Z"/>
    <path class="cls-1" d="M100.61,389.3c-.1-.12-.23-.25-.4-.42-.23-.06.05.11.4.42Z"/>
    <path class="cls-1" d="M115.18,420.49s0,0,0,0c0,0,0,0,0-.02,0,0,0,.02,0,.02Z"/>
    <polygon class="cls-1" points="115.96 421.89 116.21 421.33 115.95 421.34 115.96 421.89"/>
    <path class="cls-1" d="M97.14,384.51l-.2.18c.09-.02.17-.06.2-.18Z"/>
    <path class="cls-1" d="M85.92,373.19l.25.25c-.05-.11-.15-.18-.25-.25Z"/>
    <path class="cls-1" d="M55.58,350.03c-.96-.44-2.21-1.04-3.09-1.08l.2-.19c-.53-.19-2.29-.75-1.55.25l.36-.05c1.32.36.57.88,1.34,1.56,1.1.55,2.24.1,3.02.9.42.24.2.42-.02.51.87.67,1.66.27,2.33.61-.89,1.82,3.09,1.46,3.67,3.46.92.47,1.93,1.41,3.22,1.88-.86-.01.96.77.39,1.05,1.01-.72,2.67,2.69,3.75,1.67,1.14,1.42.12-.04,1.52,1.51-.11.13-.37-.09-.5-.15.44.74,1.37.28,1.47,1.23,1.21,1.11.47-.14,1.48.17,1.22,1.22.72,1.07,1.06,2.14.57-.45,1.13.47,2.01.72-.14-.16-.94-1.01-.19-.73,1.46,1.36,1.52.67,3.06,1.73.21,1.2-1.43-1.19-.58.34-1.13-.49-1.79-1.1-2.64-1.06,1.18,1.04,2.73,2.19,4.24,3.09.65.71-.61-.05-.09.5,1.06,1.38,2.49,1.15,3.28,2.31l-.48.11c.97.17,2.15,2.11,3.51,2.98,0-.29-.01-.48.23-.43-.7.71,1.97,1.13,2.61,2.73.35-.55,1.7.26,2.43.89.12.36-.12.5-.24.62-.87-1.37-1.58-.57-2.68-1.23.97.49,1.96,1.92,2.92,2.24l-.6.1c.96,1.07,1.7.09,2.41,1.5l-.37.15c2.16,2.12,4.09,5.16,6.3,6.42.37-.04.08-1.43.21-1.64-1.17-.91-2.13-1.16-3.08-1.79l.43-.38c-.46.09-1.54-.72-1.27.03-.83-.45-.1-.85-1.05-1.37.5-.36.97.05,1.34-.29l-.84-.45c.37.04-.23-.53.13-.49-1.69-.7-1.43-1.87-2.89-2.87l.61.76c-.24.23-.61-.18-.97-.41,0-.67-.25-.82-.74-1.59-.74-.34-1.45-.22-2.2-.93.6-.31-1-1.43-.78-1.96-.59.3-1.62-1.2-1.97-1.04-.49-.28-1-.85-.77-1.09.07.04.24.1.38.2l-.39-.39c.09-.02.11-.07.17-.04-.35-.34-.67,0-.93-.67.12-.12.37.11.62.26-.9-.97-2.35-.83-2.78-1.99-.36.08-1.51-.91-1.71-.18-.15-.44.32-.74-.58-1.4-.85.01-.79-.97-1.67-1.24,1.24.27.11-.12,1.23.08-.42-.67-1.77-.82-2.7-1.74-.02-.19.1-.31.08-.5-.5-.16-1.23-.16-1.29-.83l-.21.35c-.55-.73-1.6-1.41-2.06-2.36l-1.35-.1c-.66-1.57-2.7-2.25-4.06-2.42-.41-.36-.98-.97-.88-1.1.14.03.38.07.64.14-.62-.51-1.14-1.46-1.89-1.22-.78-.34-.22-.71-.66-1.17-1.87-.28-3.62-3.45-4.83-2.62.56.4,1.46,1.37,2.55,2.09-.38-.07-.32.31-.72.05-1.09-.72-1.35-1.51-2.55-2.08l.63-.63c-1.35-2.02-4.2-1.45-4.98-3.45Z"/>
    <path class="cls-1" d="M69.23,359.82l-.49-.93-.15.36c.27.13.51.31.64.57Z"/>
    <path class="cls-1" d="M68.6,359.25c-.18-.09-.37-.15-.55-.2.16.13.33.24.51.29l.04-.09Z"/>
    <path class="cls-1" d="M52.3,348.12c-.16-.14-.47-.41-.88-.55.18.23.63.54.88.55Z"/>
    <polygon class="cls-1" points="51.22 347.76 51.56 348.13 51.67 348.08 51.22 347.76"/>
    <path class="cls-1" d="M28.54,341.96c.17.49.4.96.59,1.41-.26.28.34,1.84-.21,1.4.75.73.69,2.67,1.37,1.75-.18-.49-.32-1.01-.48-1.55-.1-.54-.22-1.11-.27-1.69-.02-.58-.1-1.17-.03-1.76.02-.37.02-.44.03-.54l.06-.32s0-.13.04-.14h.16c.1-.02.22-.02.36-.01h.2c.06,0,.29.03.42.05.32.04.63.06.95.11,1.27.17,2.56.44,3.82.64l-.88.1c1.35.04,2.13.57,2.86.97.74.41,1.42.73,2.69.51l-.56.55c1,.68,2.56.02,3.35,1.29l.03-.32c.3.15.36.33.66.49l-.06-.18c.93.14,1.39.44,2.07,1.03-.06.23-.41-.11-.68-.18.24.4,1.09.29,1.68.63.37.44-.17.29-.28.34,1.95.72,2.36,1.86,4.17,1.68.22-.1-.26-.6.43-.29-.99-1.01-2.17-1.19-3.39-1.55l.3.17c-1.38.45-.53-.58-2.14-.95.57-.18,1.17.17,1.53.1-1.21-1.62-2.59-.71-3.18-2.2l.14.03c-.2-.22-.72-.26-1.14-.36.06.18.4.43.6.65-.42-.1-.82.22-1.03.34-.21-.64-.65-.07-1.22-.6-.05-.51.73-.1,1.09-.18l-.94-.12c-.75-.32-.53-.78-.8-1.16-.78.02.27.38-.43.58-.55-.87-4.13-2.21-5.96-2.27.6.13.34-.38,1.03-.08-.23-.18-1.21-.26-1.31.07-1.25-.07-2.69-.58-3.75-1l.27.37c-.29.09-.39.15-.61.12-.2-.02-.42-.1-.69-.16-.14-.03-.29-.06-.45-.09-.11-.05-.08.07-.12.11l-.07.18c-.08.26-.16.59-.1.92v-.02c.02.1.08.22.16.32.08.13.17.27.26.42.17.3.32.63.27,1.09-.42-.24-.41-.76-.8-.71Z"/>
    <path class="cls-1" d="M30.3,347.47l-.61-.37c.08.61.88,1.11,1.13.88-.24-.34-.18-.89-.46-.87-.04.08-.21.13-.06.36Z"/>
    <path class="cls-1" d="M35.39,357.48c.21.14.33,0,.49.01-1.31-2.06-2.9-4.56-2.99-5.56-.22-.77-.94-.58-1.5-1.43l.25-.6c-.52-.37-.61-2.07-1.13-1.25-.04.08.51.3.55.78l-.27.04.52.94-.44-.18c.17,1.55,1.33.51,1.85,2.25l-.6.3c.54,1.1,1.03,1.52,1.21,2.66,0,0,.3-.16.08-.27-.07-.19.04-.55.28-.53,1.36,1.34-.49-.05-.09,1.21,1.18,1.13,3.07,3.54,3.04,4.59-.03-.86.91-.1,1.32.71,0,.48-.49-.06-.74-.08.15.4.16.78.45,1.1.06-.66.67-.59,1.35.18-.68-2.15-2.62-2.98-3.63-4.84Z"/>
    <path class="cls-1" d="M36.2,357.73c-.13-.18-.23-.23-.32-.24.15.25.3.49.44.72l-.12-.48Z"/>
  </g>
  <g>
    <polygon class="cls-1" points="114.63 427.68 116.59 426.53 116.96 425.79 114.63 427.68"/>
    <path class="cls-1" d="M124.39,422.86c1.05-.77,2.06-1.58,3.09-2.37-2.51.29.18-1.1-5.32,1.62-1.66,1.35-5.32,4.33-4.55,4.37,1.24-.9,2.85-2.54,4.81-3.69-.61.83-2.65,2.16-3.36,3.18,3.25-1.76,1.76-1.55,5.19-3.67l.14.56Z"/>
    <path class="cls-1" d="M127.48,419.24c-.17.38-.36.76-.21.86.18-.38,1.58-1.69.21-.86Z"/>
    <path class="cls-1" d="M129.34,417.78c2.03-1.38.22.38.46.29l1.84-2.25-2.3,1.96Z"/>
    <path class="cls-1" d="M137.7,411.9c.31-.26.6-.5.89-.74-.39.13-.6.41-.89.74Z"/>
    <path class="cls-1" d="M141.71,408.87c-.97.38-1.9,1.25-3.12,2.3.05-.02.09-.03.15-.05,1.27-.65.52.58-1.41,1.79-1.87,1.48-2.01.92-3.49,2.4l2.56-1.27c3.01-2.22,4.24-4.14,5.3-5.16Z"/>
    <path class="cls-1" d="M137.7,411.9c-.33.27-.67.53-1.06.8.54-.27.83-.54,1.06-.8Z"/>
    <polygon class="cls-1" points="133.48 414.82 132.51 415.65 132.89 415.66 133.48 414.82"/>
    <path class="cls-1" d="M148.45,403.91c-.03.94-4.89,3.46-5.08,4.31,2.66-1.98,5.12-3.09,4.78-2.33l2.83-2.34c.81-.94-.77-.48-2.52.36Z"/>
    <path class="cls-1" d="M155.36,401.2c.16-.19.36-.4.6-.61-.3.26-.56.5-.6.61Z"/>
    <path class="cls-1" d="M169.47,389.16l-6.42,5.68c.5-.67.1-.67,1.62-1.89-3.1,2.17-3.21,2.84-5.77,4.64-1.17,0,4.41-3.32,2.59-2.75-1.76,1.32-4.39,3.31-5.46,4.84l-3.09,1.7,1.41-.09c1.26-.66,1.94-2.18,2.96-2.27.55,0-.56.89-1.31,1.55,1.72-1.47,5.31-3.19,8.94-5.99,3.84-2.94,2.21-3.23,4.54-5.41Z"/>
    <polygon class="cls-1" points="170.25 389.63 170.86 389.54 170.31 389.45 170.25 389.63"/>
    <path class="cls-1" d="M177.12,383.25l-3.28,3.05c-.42.24-.73.27-1.07.34.25.03-.54.99-.3.99,2.05-.67,4.23-3.44,6.06-4.96,5.25-3.54,0,.47,2.36-.49-1.43,1.05-1.58.95-3.57,2.39,3.56-1.69,7.02-5.17,8.88-6.81-.62.38-.88.31-1.95,1.18l1.92-1.72c-2.46,1.16-4.36,2.4-9.06,6.02Z"/>
    <path class="cls-1" d="M170.75,388.02c1.29-1.03,1.82-1.36,1.99-1.37-.46.11-.98.34-1.99,1.37Z"/>
    <path class="cls-1" d="M187.27,376.94c-.25.13-.61.42-1.07.82.27-.16.59-.4,1.07-.82Z"/>
    <path class="cls-1" d="M184.75,377.81l2.54-1.82-1.17.47c-.32.29-1.53,1.25-1.37,1.34Z"/>
    <path class="cls-1" d="M280.29,306.4c-.4-.05-1.39.54-3.27,2.05,0-.47,2.52-2.32,3.54-3.38-2.67,1.75-.22-.38-1.08-.18-2.84,2.13-3.79,3.48-6.87,5.72.09-.2-.06-.29-.53-.09-3.48,2.97-9.42,7.96-13.16,10.42-3.5,2.51-5.92,4.59-9.57,7.59-12.47,9.29-25.12,19.41-38.65,29.23l-1.45,2.01c-.86.2-3.17,2.39-3.07,1.73.78-.47,1.43-1.06,2.3-1.73-3.24,1.65-7.54,5.76-11.1,8.16.47-.19,1.41-.11.45.76-.22-.85-4.04,3.07-5.61,3.08-3.56,2.4.3.66-3.35,3.25-.09.66,3.56-2.39,4.42-2.59-.88,1.15-3.33,2.31-2.86,2.58,5.86-4.14,15.9-12.91,24.46-19.77l-.65,1.06c4.27-3.65,11.49-9.14,15.5-11.28-1.1.3,6.71-4.84,5.46-5.1,1.26-.69,1.58-.98,3.24-2.13l.25-.58c2.29-1.74,2.21-1.08,4.8-3.1-1.96.97-.13-.58.42-1.43,3.28-1.92,7.02-4.26,9.92-6.01-.29.05-.63.12-1.65.68,1.9-1.27,1.35-1.35,1.74-1.83,1.73-1.35,1.88-.79,1.96-.51,3.31-2.33,4.12-4.24,6.72-5.81l-1.11.31c3.24-2.62,6.3-4.37,9.86-7.28,2.11-.88-2.69,2.7-4.04,4.06.82-.47,2.41-1.65,3.02-1.87,1.38-1.44,3.74-3.77,5.5-5.48-1.42,1.96,3.18-1.63,4.46-2.56Z"/>
    <path class="cls-1" d="M270.34,314.43c-.39.41-.72.76-.9.98.33-.3.64-.58,1.19-.97,0-.1-.11-.09-.28-.02Z"/>
    <path class="cls-1" d="M280.29,306.4s.09-.02.12,0c.34-.31.21-.23-.12,0Z"/>
    <path class="cls-1" d="M258.43,321.28c.15-.1.34-.23.5-.34.21-.15.39-.29.61-.44l-1.1.78Z"/>
    <path class="cls-1" d="M256.89,324.92c-.8.42-1.86,1.05-3.06,1.76.42-.08.77-.16,3.06-1.76Z"/>
    <path class="cls-1" d="M234.33,341.55c-.64.58-.17.39-.57.86,1.43-1.06,1.82-1.54.57-.86Z"/>
    <polygon class="cls-1" points="274.4 311.45 277.09 309.21 278.04 308.34 274.4 311.45"/>
    <path class="cls-1" d="M329.05,266.48c-2.75,1.48-6.13,4.49-9.2,6.74-5.34,4.47,0,1.42-5.2,5.51l.25-1.53c-5.18,4.09-12.74,9.64-16.61,13.79-.48.2-1.49.79-.23-.38-3.46,2.73-.89,2.59-5.76,5.9,3.96-3.88-1.8.61-1.01-.83l.64-.59c-2.92,2.33-6.62,5.62-8.59,7.08.08.28,2.04-.7-.55,1.33,1.09-.77.85-.2.92.09,2.53-2.32,4.11-3.31,5.53-4.85,1.73-.88-.95.87.78-.01l1.97-1.93c1.65-1.16-1.43,1.55,1.1-.31.16-.38,2.04-2.11,4.02-3.58l-.49.53c1.41-1.26,3.62-2.74,2.54-2.65l2.11-.89-.55-.08c4.17-3.02,6.29-3.45,11.25-7.91-1.34.88-.32-.18.31-.76-2.37,1.48-2.52,2.33-4.57,3.98-.55-.08,2.69-3.18.02-1.42,3.06-1.76,5.2-4.09,6.99-4.21,3.37-2.53,4.34-3.89,7.87-6.33v.19c.21-1,2.93-1.9,5.03-4.37l-1.88,1.27c-.08-.28.78-.96,1.96-1.93q-.07.19.4-.02c.07-.66,3.85-3.68,4.24-4.16-1.66,1.18-3.38,3.01-5.19,4.56.78-.96.25-1.05,1.89-2.22Z"/>
    <path class="cls-1" d="M295.68,294.46l.94-1.02c-.42.37-.77.73-.94,1.02Z"/>
    <path class="cls-1" d="M344.67,255.43c2.2-1.57-.32.77,1.8-.61,1.96-1.94-2.9,1.39-1.08-.64,1.48-.78,3.3-2.82,4.16-3.5-.78.97.16,1.03.62.84.71-.78,2.74-1.96,4.16-3.03-3.68,2.36,2.75-2.43-.63-.36,0-.47,3.07-3.21,4.56-4,.07.29-1.03,1.07-1.9,1.76-.39.95,2.36-1.48,3.13-1.49,2.84-3.1,13.35-11.22,9.68-9.81-1.26.7-2.04,1.67-3.23,2.65,3.55-2.47.4.46.23.85-1.56.98-3.84,3.21-3.52,2.44l2.04-2.13c-7.52,5.57-17.58,13.48-25.99,20.21l3.69-2.83c-.24.58-1.97,1.94-3.22,3.11l2.26-.8c-1.09.78-2.04,1.65-2.11,1.37-1.1,1.26-.39.95.55.55-2.66,2.23-3.3,2.35-5.11,4.38,4.94-3.05,3.54-3.4,9.1-7.02l.81-1.92Z"/>
    <polygon class="cls-1" points="334.93 263.51 335.79 262.35 334.22 263.81 334.93 263.51"/>
    <path class="cls-1" d="M335.65,260.84c.16.09-.47.67-.31.76,2.2-1.57,1.8-1.55.31-.76Z"/>
    <path class="cls-1" d="M362.33,242.22l2.67-2.24-1.88,1.27c.15.1-.47.67-.79.96Z"/>
    <path class="cls-1" d="M380.38,225.69c-3.77,3.03-5.17,4.57-9.71,7.62-1.81,2.04,1.55-.03.92,1.03,2.21-1.58,1.43-2.03,3.55-3.88,1.08-.3,3.18-2.59,5.35-4.16-.37.06-.49-.1-.11-.6Z"/>
    <path class="cls-1" d="M387.07,214.28c-1.05-1.95-2.41-3.74-3.07-5.37.35.09,1.07,1.2,1.65,2.4.12-1.05-1.25-2.1-2.05-4.39.04.21.37,1.02-.07.49-2.74-5.27-2.03-2.69-5.5-9.59-.69-.89-1.23-1.85-1.49-1.49-1.72-4.06-.62-2.14-2.86-6.92-.1.29.29,2.06-.16,2.28-3.11-6.79-3.91-6.51-5.89-10.85.3.44.74.92,1.34,2.05.3-.89-2.16-3.35-3.43-5.67l.65-.09c-1.37-2.03-3.93-5.39-5.23-8.2l.63.42c-1.89-2.49-3.79-5.29-5.66-7.96-1.87-2.67-3.58-5.3-5.22-7.41-.45-.85-.89-1.71-1.36-2.56-2.36-2.83-1.32-1.32-.18.41,1.12,1.75,2.31,3.73.4,1.8.43-1.3-2.46-2.88-4.71-6.39-.45-.9.26-.12.96.64.68.77,1.35,1.53.89.5-1.01-.38-1.5-1.66-3.07-3.25.76-.01-3.08-3.53-1.71-2.91-2.08-1.69-4.27-3.23-6.62-4.44-.87-.96-2.92-2.09-4.54-2.61,1.98.84,1.6.93,1.3,1.03-.31.13-.52.24,1.42,1.46,2.95,1.57,6.46,4.55,9.56,8.18,3.15,3.59,6.01,7.72,8.31,11.33,1.14.36,3.06,4.58,4.34,5.37-.08.3.11.94.03,1.25,3.2,4.51-.38-1.31.58-.34,1.43,1.96,2.14,3.84,1.79,3.8,2.13,3.34.41.26,1.84,1.73l.72,2.61c3.43,5.13,7.34,11.16,11.15,17.5,3.82,6.34,7.54,12.98,10.73,19.25l-.07-1.18c1.25,2.54,2.59,4.56,3.85,6.51.63.97,1.24,1.92,1.8,2.91.29.5.54.97.82,1.53.32.64.63,1.28.88,1.88-.65.43-1.32.83-1.93,1.15l-1.25,1.53c.67-.84-1.34.08-.24-1.22-1.26,1.2-2.84,2.19-4.16,3.41l2.66-1.77c-1.49,1.71-3.59,3.01-4.42,3.17-3.44,3.33,2.77-1.05,3.87-1.36,1.25-1.29,2.25-2.13,3.13-2.76.77-.54,1.95-1.26,3.14-1.98-.18-.48-.38-1-.62-1.59-.13-.3-.26-.61-.4-.93-.09-.21-.18-.43-.27-.66-.38-.9-.91-1.94-1.71-3.22-2.17-3.37-.21.6-.57.51Z"/>
    <path class="cls-1" d="M387.1,220.76c-.3.28-.52.51-.68.7.25-.24.48-.46.68-.7Z"/>
    <path class="cls-1" d="M330.76,135.18c-.48-.15-1.04-.37-1.82-.55-.33-.01-.24.02.12.09.36.08.97.26,1.7.46Z"/>
    <path class="cls-1" d="M380.49,226.29s0,0,.02,0c0,0,.02-.02.03-.03-.02.01-.04.03-.05.04Z"/>
    <polygon class="cls-1" points="378.73 229.24 380.14 228.15 379.76 228.16 378.73 229.24"/>
    <path class="cls-1" d="M311.95,135.86l.08.25c.12-.13.16-.24-.08-.25Z"/>
    <path class="cls-1" d="M268.15,162.18l.92-.62c-.31.16-.63.39-.92.62Z"/>
    <path class="cls-1" d="M168.23,232.64c-2.61,2.07-6.1,4.8-7.83,6.59l.04-.36c-1.36,1.14-5.78,4.87-2.49,3.08l.59-.72c3.18-2.79,2.74-1.44,5.51-3.23,3.14-2.43,4.4-4.57,7.4-6.44,1.23-.93,1.19-.57.94-.14,2.91-2,3.59-3.43,5.5-4.92,1.96,1.07,8.52-6.74,13.53-8.69,2.62-2.02,6.34-4.41,9.59-7.1-1.57,1.68,3.29-2.2,2.85-1.21.32-1.65,10.33-6.32,10.15-7.94,4.98-2.83.18-.14,5.79-3.63.08.15-.82.78-1.16,1.05,2.32-1.25,2.93-2.82,5.08-3.52,4.38-2.95.5-.84,2.84-2.97,4.59-3.03,3.44-1.97,6.27-3.23,0-.86,2.86-2.47,4.84-4.32-.57.36-3.7,2.41-1.85.77,5.27-3.6,3.9-3.33,8.67-6.94,2.92-1.11-4.85,3.46-.21.93-2.88,2.48-5.24,4.11-6.56,5.74,4.17-2.9,9.14-6.57,13.48-10.03,2.58-1.69-1.07,1.2.94-.13,4.69-2.88,6.46-5.5,10.26-7.73l-.52.85c1.89-1.96,8.03-5.43,12.09-8.53-.65.2-1.08.33-.6-.16.5.88,5.57-4.42,10.16-6.6-.69-.31,3.19-3.32,5.75-5.05,1.01-.45.96-.1,1.04.05-4.45,2.45-3.72,3.26-6.9,5.72,2.59-2.12,7.38-4.84,9.58-6.8l-.69,1.04c1.96-1.21,2.66-1.99,3.41-2.75.38-.38.76-.76,1.33-1.16.58-.38,1.35-.8,2.46-1.29l-.24.55c4.22-2.38,8.97-4.72,13.68-6.42,4.7-1.72,9.37-2.64,13.27-2.54.18-.05.07-.17-.19-.32-.27-.14-.7-.29-1.16-.44-.93-.31-2.03-.48-2.14-.61-2.44.26-4.25.88-5.88,1.48-1.61.65-3.05,1.31-4.66,2.09l-.16-.56c-.65.62-4.46,2.55-2.17,1.9-2.51,1.45-2.22.42-5.06,2.19-.03-.66,1.73-1.6,1.54-2.07-.83.53-1.67,1.03-2.48,1.57.71-.64-1.64.63-.96,0-2.23,1.57-3.88,2.43-5.61,3.27-1.73.84-3.39,1.79-5.67,3.42l2.66-1.58c.16.3-1.35,1.22-2.43,2.03-1.53.42-2.24.97-4.74,2.35-1.91,1.56-2.71,2.82-5.48,4.65.23-.93-4.76,2.78-5.58,2.68-.23.92-5.18,3.79-5.36,4.36-1.39,1.11-3.43,2.43-3.6,2.14.2-.16.6-.51,1.04-.85l-1.47.98c.1-.15.01-.16.18-.29-1.31.88-1.05,1.27-2.91,2.17-.08-.15.83-.78,1.53-1.35-3.52,2.31-5.5,4.98-8.69,6.51-.4.64-4.35,3.45-3.11,3.4-1.21.56-1.1-.17-3.95,1.95-1.34,1.64-3.35,2.11-5.34,3.96,2.57-2.55-.08-.14,2.14-2.41-2.11,1.2-4.59,3.89-8.07,6.22-.43.14-.51,0-.95.13-1.16,1.07-2.35,2.48-3.86,2.97l.39.22c-2.44,1.48-5.62,3.88-8.37,5.28l-2.49,2.69c-2.19,1.05-4.5,2.63-6.6,4.31-2.14,1.62-4.09,3.32-5.48,4.66-1.49.94-3.74,2.31-3.83,2.16.3-.28.81-.76,1.43-1.3-2.16,1.42-5.04,2.81-5.88,4.17-2.08,1.66-1.85.73-3.54,1.77-3.93,3.76-13.4,8.51-13.94,10.58,1.8-1.25,5.36-3.45,8.77-5.88-.81.77.05.49-1.21,1.41-3.4,2.45-5.46,3.28-8.76,5.89l-.1-1c-6.4,3.46-10.52,8.96-15.82,11.24Z"/>
    <path class="cls-1" d="M212.41,201.87l-2.79,1.32.47.13c.75-.57,1.55-1.1,2.32-1.45Z"/>
    <path class="cls-1" d="M210.09,203.32c-.5.38-.96.77-1.38,1.14.56-.37,1.08-.74,1.5-1.11l-.13-.03Z"/>
    <path class="cls-1" d="M158.47,239.88c-.56.36-1.67,1.08-2.69,1.94.76-.43,2.21-1.43,2.69-1.94Z"/>
    <polygon class="cls-1" points="155.76 242.17 157.07 241.39 157.19 241.18 155.76 242.17"/>
    <path class="cls-1" d="M85.21,296.55l-3.26,3.68c-.81.38-4.67,4.38-3.67,2.82-1.71,2.44-6.8,6.28-4.44,5.35,10.37-9.95,25.09-23.12,38.02-33.41-.64.62-1.3,1.21-1.93,1.84,6.52-5.61,10.1-6.15,14.95-11.33l-.34,1.14c3.36-2.11,5.58-5.24,9.39-7.01h-.5c.89-.65,1.32-.79,2.22-1.43l-.43.15c2.17-1.92,3.63-2.93,6.07-4.43.3.08-1.02.86-1.71,1.43,1.2-.57,2.73-2.28,4.53-3.58,1.53-.85.18.29.04.51,5.21-4.16,8.11-5.31,11.27-8.96.25-.43-1.61.71.29-.79-3.76,2.3-6.38,4.73-9.45,7.32l.9-.65c-1.95,2.72-2.09,1.22-5.97,4.58.84-1.14,2.64-2.43,3.22-3.14-5.25,2.79-6.47,5.42-10.24,6.85l.33-.28c-.77.42-1.93,1.49-2.95,2.34.44-.14,1.55-.85,2.33-1.28-1.04.86-1.33,1.64-1.58,2.07-1.51.49-1.5,1.35-3.59,2.55-.95.14,1.4-1.49,2-2.2l-2.18,1.92c-2.15,1.55-2.41,1.12-3.61,1.68-1.64,1.57,1.2-.56,0,.86-2.59,1.22-12.55,8.19-16.86,12.03,1.54-1.25.25-.83,2.25-2.18-.79.39-3.08,2.51-2.91,2.77-3.01,2.63-7.03,5.67-10.08,7.84l1.04-.44c-1,1.23-2.57,2.44-4.38,3.81-1.81,1.38-3.83,2.99-5.8,4.94l.09-.07c-1.28,1.24-1.85,2.88-4.38,4.94.4-.91,1.72-2.06,1.32-2.24Z"/>
    <path class="cls-1" d="M71.39,310.28l1.02-1.56c-1.53,1.27-2.97,3.38-2.45,3.31.93-.98,2.36-2,2.35-2.36-.21.1-.3-.04-.92.61Z"/>
    <path class="cls-1" d="M42.98,334.31c-.53.51-.26.54-.44.83,6.4-4.69,13.76-11.07,16.34-12.89,2.1-1.63,2.02-2.47,4.4-4.81l1.44-.65c1.16-1.41,5.56-4.73,3.6-3.99-.2.08-.91,1.33-2.14,2.25v-.36s-2.58,2.43-2.58,2.43l.63-1c-3.93,2.86-1.86,3.03-6.58,6.68l-.41-.54c-3.02,2.58-4.48,3.97-7.43,5.9,0,0,.19.28.63-.25.53-.39,1.36-.72,1.13-.28-4.37,4.18.51-.86-2.97,1.51-3.67,3.6-11.5,9.58-14.23,10.6,1.12-.49.99-.16.27.5-.36.33-.87.74-1.43,1.16-.58.4-1.24.81-1.87,1.17-1.26.47.58-.81.88-1.22-1.19.62-2.22,1.03-3.32,1.8,1.68-.56.96.45-1.64,2.25,1.54-.79,2.95-1.62,4.3-2.48.67-.43,1.33-.85,1.96-1.31.62-.48,1.23-.95,1.85-1.42,1.22-.95,2.45-1.9,3.7-2.87,1.23-1.01,2.52-2.01,3.92-3Z"/>
    <path class="cls-1" d="M41.66,335.96c.56-.43.78-.67.88-.82-.76.55-1.51,1.1-2.22,1.62l1.34-.8Z"/>
  </g>
  <g>
    <polygon class="cls-1" points="385.21 222.43 385.84 222.24 385.83 221.78 385.21 222.43"/>
    <path class="cls-1" d="M388.69,222.06l.84-.86c-1.26-.54-.38-.78-2.24-.42-.36.5-1.35,1.47-.98,1.81.37-.28.72-.96,1.34-1.2-.02.47-.69.75-.76,1.32,1.14-.26.5-.54,1.54-1.13l.27.48Z"/>
    <path class="cls-1" d="M389.05,220.28c.05.22.09.45.21.57-.04-.23.23-.76-.21-.57Z"/>
    <path class="cls-1" d="M389.5,219.76c.54-.46.29.33.38.33l.06-1.13-.43.8Z"/>
    <path class="cls-1" d="M391.6,217.71c.06-.1.11-.2.16-.3-.16,0-.15.15-.16.3Z"/>
    <path class="cls-1" d="M392.46,216.54c-.39.06-.5.43-.7.87.02,0,.03,0,.06,0,.43-.17.6.49.06.9-.38.61-.75.17-.91.85l.92-.28c.69-.88.47-1.88.57-2.33Z"/>
    <path class="cls-1" d="M391.6,217.71c-.06.11-.13.21-.22.32.18-.07.21-.2.22-.32Z"/>
    <polygon class="cls-1" points="390.54 218.73 390.36 219.07 390.58 219.17 390.54 218.73"/>
    <path class="cls-1" d="M393.86,214.6c.5.56-1.04,1.37-.72,1.85.56-.77,1.43-1.1,1.65-.69l.43-1.02c-.03-.45-.76-.38-1.36-.14Z"/>
    <path class="cls-1" d="M396.59,213.89c-.02-.09,0-.19.02-.28-.04.12-.06.22-.02.28Z"/>
    <path class="cls-1" d="M398.14,208.55c-.15.85-.34,1.69-.51,2.54-.1-.32-.35-.35-.15-.89-.62.91-.24,1.29-.79,2.03-.37-.06-.17-.41.02-.73.17-.33.34-.62-.06-.54-.27.58-.77,1.38-.53,2.14l-.93.62.82.11c.4-.24-.07-1.03.51-.97.35.06.18.45.09.74.21-.65,1.49-1.25,2.03-2.51.61-1.3-.6-1.56-.5-2.54Z"/>
    <polygon class="cls-1" points="398.93 208.83 399.27 208.83 398.86 208.75 398.93 208.83"/>
    <path class="cls-1" d="M399.23,205.97l-.14,1.36c-.12.1-.3.1-.46.12.18.03.29.47.45.49.87-.23.51-1.52.68-2.19,1.04-1.54.3.23,1.19-.15-.23.46-.38.41-.73,1.04,1.18-.69,1.11-2.29,1.23-3.02-.15.16-.37.12-.47.51l.1-.77c-.82.48-1.22,1.02-1.84,2.61Z"/>
    <path class="cls-1" d="M398.23,208.03c.16-.45.29-.59.39-.58-.22.03-.41.11-.39.58Z"/>
    <path class="cls-1" d="M401.59,203.26c-.07.06-.1.19-.14.37.07-.07.12-.17.14-.37Z"/>
    <path class="cls-1" d="M400.54,203.6l.43-.8-.43.2c-.01.13-.15.55,0,.6Z"/>
    <path class="cls-1" d="M415.32,172.8c-.29-.06-.56.17-.82.81-.3-.24.18-1.01.17-1.48-.63.7-.38-.21-.81-.17-.5.89-.27,1.52-.85,2.44-.07-.1-.23-.16-.4-.09-.39,1.28-1.06,3.43-1.92,4.43-.67,1.05-.9,1.95-1.34,3.25-2.11,3.93-3.46,8.41-5.55,12.74l.42.9c-.42.08-.42,1.06-.81.76.18-.21.2-.47.31-.77-.97.72-.96,2.55-1.64,3.61.17-.08.84-.03.8.36-.71-.4-.54,1.36-1.55,1.33-.69,1.04.63.32.01,1.45.39.31.7-1.05,1.12-1.12.2.52-.61,1.02-.12,1.16,1.06-1.82,1.55-5.76,2.46-8.78l.29.47c.29-1.62,1.25-4.04,2.41-4.95-.52.11,1.12-2.08.14-2.24.36-.29.38-.41.68-.91l-.22-.27c.34-.74.72-.43,1.08-1.29-.63.38-.46-.29-.66-.68.85-.81,1.8-1.73,2.54-2.45-.15.01-.33.02-.63.24.42-.53,0-.6-.05-.81.25-.58.71-.28.94-.14.64-.97-.04-1.88.65-2.51l-.52.09c.44-1.12,1.3-1.8,1.77-3.04.81-.3-.04,1.19-.05,1.79.23-.18.51-.68.76-.75-.02-.64.05-1.66.11-2.41.31.9,1.03-.6,1.28-.99Z"/>
    <path class="cls-1" d="M413.93,176.2c0,.18.02.34.04.44.02-.13.04-.25.15-.41-.06-.05-.12-.05-.19-.03Z"/>
    <path class="cls-1" d="M415.32,172.8s.05,0,.07,0c.02-.13,0-.1-.07,0Z"/>
    <path class="cls-1" d="M410.58,178.89s.07-.09.11-.14c.04-.07.07-.12.11-.18l-.22.32Z"/>
    <path class="cls-1" d="M411.91,180.63c-.24.16-.53.41-.85.7.22-.01.4-.03.85-.7Z"/>
    <path class="cls-1" d="M408.16,187.66c-.03.26.15.18.21.39.21-.46.15-.67-.21-.39Z"/>
    <polygon class="cls-1" points="414.68 174.96 415.02 174.01 415.09 173.63 414.68 174.96"/>
    <path class="cls-1" d="M422.04,155.91c-.86.55-1.18,1.85-1.77,2.77-.69,1.89.88.74.05,2.45l-.78-.78c-.82,1.71-2.26,4-2.18,5.85-.18.07-.48.29-.38-.22-.55,1.14,1.03,1.28-.06,2.61.15-1.7-.79.17-1.17-.51l.05-.26c-.43.98-.77,2.4-1.14,3.01.23.15.88-.21.47.65.22-.32.43-.04.65.12.18-1.01.59-1.4.55-2.09.56-.32-.07.38.5.06l.07-.85c.34-.47.04.69.52-.07-.14-.19,0-.94.37-1.54v.24c.14-.54.65-1.14,0-1.18l.81-.29-.4-.09c.82-1.24,1.93-1.29,2.37-3.21-.32.35-.32-.12-.27-.37-.61.58-.18,1.01-.49,1.71-.4-.08-.23-1.44-.87-.74.88-.67.83-1.71,1.9-1.63.62-1.04.4-1.68,1.17-2.66l.11.1c-.48-.5.73-.75.54-1.88l-.43.51c-.23-.15-.09-.43.07-.85q.07.09.25.02c-.36-.34.21-1.6.16-1.82-.34.48-.32,1.3-.52,1.96-.09-.44-.49-.53-.16-1Z"/>
    <path class="cls-1" d="M417.82,167.8l-.02-.45c-.04.16-.05.32.02.45Z"/>
    <path class="cls-1" d="M425.28,151.39c.44-.65.27.37.78-.18.05-.85-1.01.51-1.11-.4.47-.3.36-1.21.5-1.5.1.44.75.54.93.47-.03-.35.55-.81.8-1.26-.91.95.25-1.05-.64-.23-.3-.24-.02-1.41.44-1.72.23.15.01.48-.12.76.35.46.6-.59,1.09-.55-.13-1.39,1.56-4.81.06-4.32-.38.27-.27.71-.42,1.12.74-1.02.55.25.69.43-.39.4-.46,1.37-.74,1.01l-.03-.94c-1.34,2.33-2.89,5.66-4.14,8.49l.62-1.18c.21.28-.06.85-.15,1.36l.97-.24c-.22.32-.29.7-.52.55.07.56.34.46.7.32-.33.95-.67.96-.58,1.88,1.31-1.2.18-1.49,1.53-2.94l-.68-.93Z"/>
    <polygon class="cls-1" points="424 154.83 423.84 154.3 423.73 154.93 424 154.83"/>
    <path class="cls-1" d="M422.8,153.51c.16.06.11.31.27.37.45-.64.2-.66-.27-.37Z"/>
    <path class="cls-1" d="M428.43,145.87l.31-.96-.41.53c.16.06.12.31.1.44Z"/>
    <path class="cls-1" d="M429.59,138.68c-.5,1.29-.42,1.98-1.42,3.23.13.91.99.07,1.26.55.42-.67-.38-.93-.19-1.73.51-.1.4-1.11.81-1.77-.2.01-.38-.07-.46-.29Z"/>
    <path class="cls-1" d="M432.98,134.95c.26-.58.18-1.31.56-1.7.22.17.17.56-.04.89.65,0,.17-.69.81-1.18-.08.03-.27.22-.32,0,.76-1.54-.09-1.07,1.03-3.02-.04-.36.07-.66-.33-.75.91-1,.69-.41,1.63-1.68-.24-.03-.92.26-1.39.07,1.41-1.76.65-2.08,1.59-3.2-.02.15.04.37-.14.7.72.06.24-1.13.61-1.81l.55.26c.13-.7.15-1.96.81-2.69l.23.28c.01-.18,0-.29.04-.52l.12-.7c.09-.46.19-.9.29-1.34.21-.87.45-1.73.67-2.53-.8.14-1.56.28-2.24.45-.28-.09-.6-.17-.97-.24-1.6.46-.76.4-.04.4.37,0,.74.02.83.11.1.1-.08.28-.6.58.21-.59-.23-.43-.71-.19-.5.25-.94.57-1.57.44-.62-.35,1.16-.4.47-.81-.18.6-.6.25-1.21.51.06-.55-1.32.12-1.02-.54-.69.43-1.38.88-2.08,1.29-.4-.26-1.03-.14-1.5,0,1.2-.13-.23.83,1.15.92.97-.23,2.26-.53,3.62-.77,1.46-.25,2.56-.39,3.38-.37.4-.36.73-.46,1.03-.51-.13.44-.41.98-.03.96-.31.22-.6.49-.89.65-.07.51.05.46.24.22.19-.23.45-.67.56-.56-.04.32-.24.68-.44.89-.2.22-.41.31-.54.28-.14.4-.1.44.01.44.11,0,.3-.08.41.26l-.98.47c-.84,3.43-1.86,8.08-3.84,11.64l.58-.1c-.93,1.6-.13,3.28-1.77,4.35l.18.68c-.11-.38-.82-.01-.95-.59-.04.52-.42.93-.48,1.47l.58-.74c.15.76-.38,1.3-.82,1.34-.1,1.45,1.15-.38,1.65-.49-.1-2.15,1.61-1.43,1.99-3.29.17-1.18-.48-.07-.7-.24Z"/>
    <path class="cls-1" d="M430.77,136.6c0,.12,0,.23.01.31.01-.1,0-.2-.01-.31Z"/>
    <path class="cls-1" d="M429.08,118.03c-.14.01-.31.04-.53.09-.17.15.11.03.53-.09Z"/>
    <path class="cls-1" d="M430.05,138.98s0,0,0,0c0,0,0,0,0-.02,0,0,0,.02,0,.02Z"/>
    <polygon class="cls-1" points="430.8 140.32 431.03 139.86 430.78 139.85 430.8 140.32"/>
    <path class="cls-1" d="M423.65,118.01l.02.26c.04-.09.05-.17-.02-.26Z"/>
    <path class="cls-1" d="M409.09,119.01h.32c-.1-.04-.21-.03-.32,0Z"/>
    <path class="cls-1" d="M374.05,121.38c-.95.21-2.2.47-2.88.95l.05-.27c-.5.17-2.12.71-1.02,1.11l.24-.25c1.18-.48.91.38,1.86.48,1.12-.21,1.72-1.24,2.74-1.06.44-.06.39.22.27.42,1.02.02,1.37-.77,2.06-.91.39,2,3.08-.74,4.65.48.94-.21,2.22-.1,3.4-.55-.62.53,1.14-.01.9.57.29-1.19,3.5.36,3.64-1.13,1.66.34.06-.1,1.97.16,0,.17-.31.18-.44.22.76.27,1.12-.68,1.77-.04,1.52.04.24-.41,1.12-.85,1.59.1,1.15.32,2.05.89.11-.71,1.06-.42,1.82-.82-.19-.02-1.27-.11-.58-.41,1.84.02,1.44-.54,3.14-.81.91.73-1.71.11-.17.65-1.07.41-1.89.42-2.44,1.01,1.46-.03,3.23-.24,4.8-.65.89.05-.43.39.27.42,1.6.25,2.38-.93,3.66-.66l-.24.41c.73-.58,2.79-.03,4.23-.44-.2-.19-.33-.32-.15-.46.05,1.01,1.99-.67,3.48-.06-.16-.63,1.21-1.09,2.09-1.21.33.15.28.42.29.59-1.48-.27-1.35.8-2.47,1.17.93-.4,2.54-.16,3.33-.7l-.29.53c1.33-.04,1.06-1.23,2.48-.88l-.1.38c1.39-.15,2.92-.14,4.37-.21,1.45-.1,2.82-.31,3.88-.84.16-.33-1.04-.9-1.12-1.13-1.29.41-2,1.04-2.99,1.4l-.04-.58c-.19.41-1.39.76-.68,1-.8.37-.68-.45-1.6-.03.02-.61.58-.72.54-1.22l-.8.37c.24-.26-.51-.16-.28-.41-1.46.86-2.15-.09-3.7.38l.89.03c.02.33-.48.35-.86.48-.47-.43-.72-.35-1.55-.5-.68.31-1.02.94-1.97,1,.16-.65-1.6-.23-1.81-.75-.16.65-1.82.36-1.92.73-.5.17-1.2.13-1.21-.2.07-.02.22-.09.37-.13h-.51c.04-.07.02-.12.08-.14-.45.01-.43.47-1.03.19,0-.17.31-.19.57-.26-1.21-.04-2.05,1.08-3.08.56-.18.31-1.57.42-1.23,1.07-.39-.21-.27-.76-1.28-.6-.55.6-1.14-.15-1.9.25.99-.64,0-.17.86-.78-.7-.2-1.69.61-2.9.57-.13-.13-.13-.3-.27-.42-.44.22-.93.71-1.39.26l.07.4c-.83-.17-1.96.02-2.86-.38l-.99.81c-1.41-.75-3.23.06-4.29.81-.51-.01-1.27-.11-1.27-.28.11-.07.31-.19.53-.3-.74,0-1.67-.39-2.06.27-.75.23-.58-.41-1.15-.49-1.5.98-4.58-.44-4.98.96.63-.03,1.84.19,3.04.07-.31.18-.05.44-.49.49-1.2.12-1.85-.36-3.04-.06l.1-.88c-2.12-.76-3.88,1.41-5.57.25Z"/>
    <path class="cls-1" d="M389.5,120.6l-.9-.4.11.37c.27-.07.54-.09.79.03Z"/>
    <path class="cls-1" d="M388.71,120.57c-.18.05-.35.12-.5.2.19,0,.38-.03.53-.11l-.03-.09Z"/>
    <path class="cls-1" d="M370.57,121.76c-.19-.02-.58-.07-.95.06.26.09.76.09.95-.06Z"/>
    <polygon class="cls-1" points="369.58 122.1 370.02 122.2 370.08 122.1 369.58 122.1"/>
    <path class="cls-1" d="M344.22,125.6l-1.29.77c-.29-.22-1.79.38-1.37-.17-.71.77-2.6.48-1.77,1.26,3.97-1.07,9.63-1.38,14.25-2.72l-.71.45c2.37-1,3.44.41,5.27-1.24l-.19.76c1.14.09,2.06-1.25,3.31-.59l-.14-.29c.31-.03.45.1.76.07l-.14-.12c.8-.37,1.31-.38,2.14-.25.08.23-.37.13-.62.22.39.21.99-.35,1.62-.4.51.16.02.34-.04.44,1.87-.49,2.8.25,4.06-.95.12-.21-.52-.34.17-.48-1.28-.25-2.27.25-3.39.63l.32-.02c-.83,1.13-.71-.18-2.13.4.35-.47.98-.52,1.22-.77-1.75-.66-2.36.83-3.56-.11l.12-.04c-.26-.08-.69.16-1.06.29.14.12.52.16.78.24-.38.13-.53.62-.64.83-.48-.43-.55.28-1.26.11-.29-.41.53-.45.77-.7l-.8.37c-.75.1-.79-.41-1.19-.61-.61.39.4.2-.07.71-.86-.45-4.31.09-5.9.7.56-.13.14-.49.84-.49-.26-.07-1.12.25-1.08.59-1.1.4-2.56.43-3.66.27l.35.29c-.81.69-2.3-.09-3.83.45h.03c-.49.15-.8,1-1.74,1.01.19-.44.69-.5.58-.89Z"/>
    <path class="cls-1" d="M338.87,127.34l.42-.55c-.58,0-1.16.71-.99.99.36-.16.89-.05.9-.32-.07-.05-.1-.22-.34-.11Z"/>
    <path class="cls-1" d="M328.57,129.7c-.17.16-.07.31-.13.46,2.12-.68,4.8-1.38,5.73-1.23.76-.02.75-.74,1.64-1.11l.51.37c.44-.42,2.07-.21,1.38-.86-.07-.06-.37.43-.82.4l.02-.28-.97.31.25-.4c-1.45-.17-.74,1.19-2.45,1.25l-.13-.66c-1.12.21-1.62.55-2.69.37,0,0,.07.33.23.16.19,0,.49.21.41.43-1.55.88.17-.45-1.06-.46-1.31.8-3.88,1.91-4.8,1.59.77.21-.1.89-.89,1.07-.42-.13.14-.45.21-.68-.39.03-.73-.05-1.07.14.58.23.4.8-.38,1.24,1.97-.1,3.12-1.68,5.02-2.11Z"/>
    <path class="cls-1" d="M328.16,130.4c.19-.07.26-.15.29-.23-.25.07-.51.15-.74.21l.46.02Z"/>
  </g>
  <g>
    <polygon class="cls-1" points="419.25 167.42 419.12 167.23 418.95 167.61 419.25 167.42"/>
    <path class="cls-1" d="M418.86,165.77l-.33.08c-.17,1.19-.3.79-.09,1.75.21-.13.67-.43.75-.89-.12.01-.42.4-.54.21.17-.31.33-.21.54-.62-.17-.43-.25.23-.5-.01l.17-.51Z"/>
    <path class="cls-1" d="M418.19,166.8c.09-.19.17-.38.21-.54-.09.19-.3.39-.21.54Z"/>
    <path class="cls-1" d="M417.98,166.87c-.17-.1.13-.42.13-.49l-.43.67.3-.19Z"/>
    <path class="cls-1" d="M417.24,166.6s-.07.02-.11.04c0,.13.05.04.11-.04Z"/>
    <path class="cls-1" d="M416.84,166.56c0,.28.14.16.29.07,0-.01,0-.02,0-.05-.04-.25.23-.74.35-.55.21-.07.04.45.29.15l-.08-.49c-.29-.01-.68.69-.86.86Z"/>
    <path class="cls-1" d="M417.24,166.6s.07-.01.11,0c-.02-.1-.06-.06-.11,0Z"/>
    <polygon class="cls-1" points="417.6 166.77 417.73 166.69 417.77 166.46 417.6 166.77"/>
    <path class="cls-1" d="M416.22,166.4c.27-.69.41.23.64-.31-.25-.05-.27-.64-.09-1.01l-.34.13c-.18.24-.24.8-.21,1.18Z"/>
    <path class="cls-1" d="M416.3,164.44c-.04.05-.07.09-.1.1.04-.02.08-.05.1-.1Z"/>
    <path class="cls-1" d="M414.55,165.18l.86-.48c-.14.21-.19.44-.36.46.24.2.43-.25.63-.1-.16.68-.42-.09-.49.54.17.04.42.09.74-.43l.1.53.16-.75c-.03-.24-.4.5-.29-.02.07-.32.2-.34.29-.39-.21.09-.25-.71-.6-.73-.36-.05-.69,1.11-1.04,1.36Z"/>
    <polygon class="cls-1" points="414.81 164.38 414.88 164.09 414.77 164.48 414.81 164.38"/>
    <path class="cls-1" d="M413.8,165.06l.49-.33c.01.07-.03.23-.05.37.05-.17.24-.42.27-.56.1-.7-.46.06-.68.11-.34-.46.15-.34.21-1.01.12.06.06.22.22.33,0-.83-.59-.29-.84-.17.03.08-.04.29.08.27l-.27.14c-.01.58.1.78.56.85Z"/>
    <path class="cls-1" d="M414.38,165.27c-.14,0-.16-.06-.14-.15-.03.19-.04.33.14.15Z"/>
    <path class="cls-1" d="M413.33,163.78s.04.04.1.02c-.01-.04-.04-.05-.1-.02Z"/>
    <path class="cls-1" d="M413.21,164.61l-.2-.15-.03.34s.17-.03.23-.18Z"/>
    <path class="cls-1" d="M405.56,159.73c-.13.25-.12.42.06.46-.21.31-.37.13-.58.25.08.33-.23.37-.36.72.22.17.56-.18.77.05-.07.09-.14.23-.17.36.43-.03,1.11-.05,1.26.4.22.28.52.25.92.26.49.35,1.05.59,1.62.84.58.23,1.15.49,1.66.92l.46-.59c-.09.36.28.12.06.54-.03-.11-.12-.07-.2-.09,0,.69.69.23.91.57.01-.13.21-.74.34-.8-.33.74.36.13.1,1.03.22.34.28-.65.54-.4.21-.43-.21-.34-.13-.7.24-.32.22.27.39-.2-.4-.43-1.72.13-2.59.01l.26-.37c-.52.12-1.16-.16-1.15-.96-.12.42-.46-.48-.83.42,0-.25-.04-.23-.14-.37l-.17.26c-.19-.11.05-.51-.18-.6-.04.45-.26.47-.48.75-.05-.54-.16-1.06-.21-1.5-.04.13-.09.27-.1.47-.09-.21-.25.16-.35.26-.16-.06.11-.53.25-.77-.19-.29-.79.54-.83.13l-.13.41c-.33-.06-.33-.6-.71-.65.14-.59.5-.3.75-.45,0-.14-.11-.24-.06-.43-.28.19-.7.43-1,.58.49-.5.1-.7.02-.79Z"/>
    <path class="cls-1" d="M406.54,159.94c.08-.06.15-.11.2-.15-.05.01-.09.03-.12-.02-.04.06-.06.12-.08.17Z"/>
    <path class="cls-1" d="M405.56,159.73s.02-.04.03-.06c-.05.02-.05.04-.03.06Z"/>
    <path class="cls-1" d="M406.56,162.02s-.02-.03-.02-.05c-.01-.02-.03-.02-.04-.04l.06.1Z"/>
    <path class="cls-1" d="M407.71,160.43c-.01.16,0,.34.01.53.07-.19.12-.33-.01-.53Z"/>
    <path class="cls-1" d="M409.36,161.81c.09-.04.11-.17.21-.28-.11-.08-.21.03-.21.28Z"/>
    <polygon class="cls-1" points="406.26 159.67 405.97 159.65 405.83 159.7 406.26 159.67"/>
    <path class="cls-1" d="M400.56,158.61c-.11.55.36.51.54.76.59.1.7-.87,1.15-.64l-.67.82c.46.23.95.82,1.81.28-.04.13-.05.31-.24.37.31.15.95-1.17,1.14-.65-.7.34-.21.6-.65,1.09l-.1.03c.29.09.79,0,.93.13.15-.23.22-.67.45-.57-.06-.1.13-.34.28-.57-.37.12-.4-.11-.72.12.06-.37.14-.05.2-.42l-.35.17c-.08-.15.32-.22.16-.41-.13.16-.41.25-.55.12l.11-.07c-.2.04-.26-.22-.53.32l.18-.58-.19.35c-.24-.35.17-1.22-.52-1.09.03.17-.18.28-.28.31.02.34.38-.11.58-.05-.19.35-.74.56-.67.89.04-.54-.46-.23.01-1.11-.23-.22-.61.1-.73-.28l.09-.11c-.43.5-.04-.4-.63.01l.05.22c-.16.21-.24.17-.36.14q.07-.08.12-.2c-.31.36-.66.21-.78.29.08.16.47-.04.68-.04-.24.17-.45.51-.53.35Z"/>
    <path class="cls-1" d="M404.27,159.04l-.21.14c.06-.01.13-.05.21-.14Z"/>
    <path class="cls-1" d="M399.89,157.06c-.09-.21.3-.29.28-.57-.37.13-.23.68-.7.94.08-.3-.39-.05-.46-.09.25-.16.6-.69.66-.81-.17.09-.11-.27-.2-.36,0,.51-.37.01-.41.53-.25.27-.68.29-.59-.01.18-.2.23-.09.3-.05.38-.35.01-.35.28-.73-.69.34-1.43-.38-1.97.67-.06.24.19.09.32.14-.1-.4.4-.46.55-.59-.01.23.41.12.1.39l-.45.17c.39.67,1.26,1.21,2.01,1.61l-.27-.24c.22-.22.37-.13.56-.16l.32-.71c.04.11.19.08.02.29.29-.18.36-.37.46-.62.29.05.15.31.6.03.03-.75-.61.2-.66-.54l-.74.72Z"/>
    <polygon class="cls-1" points="400.91 157.31 400.59 157.56 400.83 157.5 400.91 157.31"/>
    <path class="cls-1" d="M399.77,158.54c.1-.14.19-.16.29-.29-.1-.21-.22-.01-.29.29Z"/>
    <path class="cls-1" d="M398.85,155.7l-.28-.07.03.22c.11-.13.2-.14.25-.15Z"/>
    <path class="cls-1" d="M396.14,155.91c.33.21.69.04.75.62.49-.23.55-.76.91-1.03-.08-.22-.62.42-.89.39.23-.37-.31-.14-.39-.36-.1.15-.24.29-.38.38Z"/>
    <path class="cls-1" d="M396.36,153.84c-.12-.12-.47,0-.42-.24.21-.17.35-.17.37-.05.39-.47-.2-.06-.03-.47-.04.06-.07.18-.2.23-.2-.42-.53.16-.67-.51-.18.05-.23-.01-.52.27.15-.59.26-.46.33-1.05-.17.17-.48.62-.86.95.14-.89-.46-.38-.29-1,.05.01.17-.03.19.09.51-.49-.29-.15-.31-.4l.48-.37c-.19-.08-.7-.08-.5-.53l.27-.15c-.66-.07-.79-.66-1.21-.85l.18-.39c-.7-.18.14.56-.83.75.87-.69-.47-.03-.29-.54.28-.37.37.14.7-.29-.51.26-.23-.04-.46-.1.47-.27-.12-.34.44-.58l-1.15.04c.21-.24.07-.36-.06-.43.17.28-.73.33-.75.78.51.33,1.13.98,1.31,1.68.64-.37.25.36.79.08-.18.15-.31.32-.49.47.38.26.26-.33.54-.4.19.09-.08.48-.3.63.17.27.18-.1.6-.22l-.51.66c.41.3.91.62,1.37.98.47.35.88.77,1.09,1.33l.31-.41c.14.56,1.38-.22.92.86l.41-.21c-.23.12-.47.61-.8.76.22-.03.19.21.39.2v-.35c.41-.19.36.13.14.45.61-.12.44-.79.68-1.16-1.01.32.28-1.01-.34-1.06-.42,0-.31.35-.52.53Z"/>
    <path class="cls-1" d="M395.84,155.28c.05,0,.1-.02.15-.04-.04,0-.09.02-.15.04Z"/>
    <path class="cls-1" d="M391.5,148.24s-.05-.07-.1-.11c-.14.02-.02.04.1.11Z"/>
    <polygon class="cls-1" points="396.52 155.54 396.53 155.53 396.52 155.53 396.52 155.54"/>
    <polygon class="cls-1" points="397.55 154.8 397.46 154.69 397.32 154.88 397.55 154.8"/>
    <path class="cls-1" d="M391.37,146.69l-.23.12c.08-.03.16-.06.23-.12Z"/>
    <path class="cls-1" d="M390.05,143.18v.08s.03-.06,0-.08Z"/>
    <path class="cls-1" d="M388.73,134.31c-.12-.27-.22-.62-.62-.89l.26.06c-.11-.15-.45-.68-.97-.48l.22.11c.34.4-.47.16-.69.4.07.35,1.04.67.75.9.01.12-.25.07-.45.01-.12.27.65.47.73.66-2.01-.1.49.88-.82,1.21.14.27-.01.62.38.95-.5-.17-.04.31-.61.25,1.17.06-.52,1.01.99.98-.37.47.1,0-.2.55-.16.01-.17-.07-.21-.1-.28.24.66.25,0,.49-.07.43.4.03.82.22-.13.44-.33.35-.9.68.7-.07.41.24.81.38.02-.06.11-.36.41-.22-.02.49.53.3.79.69-.72.38-.1-.43-.63.08-.4-.21-.41-.43-1-.49.04.4.22.87.66,1.2-.04.26-.39-.03-.41.17-.22.51.94.43.7.85l-.4.04c.55.05.1.77.52,1.05.17-.11.29-.19.43-.18-.95.33.68.33.14.94.58-.26,1.05-.06,1.21.12-.13.14-.38.23-.53.29.2-.49-.81-.06-1.19-.26.39.13.26.65.78.67l-.5.12c.08.37,1.16-.17.88.36l-.35.12c.34.66.23,1.76,1.22,1.89.29-.11.76-.73.96-.85-.39-.17-.95-.1-1.31-.21l.51-.26c-.38.13-.74-.05-.93.25-.37-.07.37-.38-.04-.46.55-.25.68-.14,1.13-.37l-.37-.06c.24-.04.13-.21.37-.25-.82-.05.03-.62-.43-.85v.25c-.31.14-.33,0-.46-.05.39-.29.3-.32.41-.59-.32-.06-.92.07-.99-.17.61-.18.18-.51.67-.74-.61.17-.37-.37-.73-.28-.17-.08-.16-.28.16-.38.02.01.1.03.14.06l-.02-.13c.07-.01.12-.03.14-.02-.03-.11-.47.02-.2-.21.16-.05.18.03.26.07.03-.32-1.06-.25-.57-.65-.3.03-.42-.31-1.05-.07.2-.16.73-.25.57-.48-.6-.02.13-.33-.26-.45.63.14.16-.03.76.07.2-.22-.6-.32-.55-.65.13-.06.29-.08.42-.14-.22-.07-.7-.13-.25-.32l-.39.08c.16-.24-.02-.51.41-.79l-.79-.17c.77-.44,0-.83-.72-1.1.03-.14.17-.35.34-.35.06.03.18.08.28.13.03-.2.46-.44-.18-.54-.2-.2.44-.15.54-.3-.45-.2-.3-.5-.18-.76.13-.26.19-.47-.49-.58-.01.17-.33.47-.27.8-.17-.09-.44-.03-.47-.15-.04-.34.48-.48.28-.82l.87.1c.92-.45-1.12-1.17.21-1.44Z"/>
    <path class="cls-1" d="M388.54,138.33l.43-.25-.38.04c.06.07.07.14-.05.21Z"/>
    <path class="cls-1" d="M388.59,138.12s-.11-.09-.18-.12c0,.05,0,.1.08.14h.09Z"/>
    <path class="cls-1" d="M388.73,133.38s.13-.13.05-.25c-.11.04-.17.17-.05.25Z"/>
    <polygon class="cls-1" points="388.52 133.07 388.36 133.16 388.46 133.19 388.52 133.07"/>
    <path class="cls-1" d="M390.14,126.32l-.29-.59c.27.07.19-.48.53-.13-.45-.51.33-.66-.55-.94-.14.59-.5,1.18-.83,1.82-.31.65-.52,1.38-.41,2.13l-.25-.33c.39.89-1.08.64.08,1.64l-.67-.31c-.3.25.81.91-.04.99l.3.06c-.03.08-.17.08-.2.16h.14c.23.31.16.43-.09.6-.23-.05-.07-.13-.11-.22-.26.04.18.35.14.51-.23.08-.33-.08-.42-.13.19.59-.64.67.36,1.26.19.07.39-.06.45.15.39-.26.05-.61-.16-.99l-.02.08c-.98-.5.28-.13-.07-.63.39.22.35.38.56.5.9-.23-.44-.8.64-.8l.02.04c.11-.03-.03-.2-.1-.33-.14,0-.24.07-.36.1-.06-.13-.49-.31-.67-.41.49.03-.17-.22.12-.33.44.07.33.27.53.41l-.21-.3c.04-.21.52-.05.77-.07-.26-.27-.26.02-.65-.26.59-.04.72-.97.54-1.54,0,.17.41.23.27.37.12-.02,0-.33-.31-.46-.15-.4.21-.7.6-.83l-.34-.06c-.42-.47.62-.4.54-.92h-.01c0-.15-.67-.63-.4-.79.32.25.23.36.59.53Z"/>
    <path class="cls-1" d="M390.19,124.58l.33.36c.17-.08-.24-.55-.52-.68.03.14-.22.16,0,.31.07.02.21.1.19.01Z"/>
    <path class="cls-1" d="M391.74,122.04c-.05-.11-.21-.2-.3-.29-.33.54-.61,1.3-1.04,1.33-.23.11.34.52.34.83l-.47-.14c.18.28-.49.39.26.65.07.02-.25-.29-.07-.33l.22.16.07-.29.24.25c.61-.07-.71-.76-.19-1l.57.37c.2-.24.08-.52.58-.51,0,0-.28-.19-.2-.07-.06.02-.32-.07-.47-.21-.16-.68.29.28.71.17-.15-.58,0-1.45.56-1.31-.44-.08-.62-.57-.45-.74.25.06.28.3.42.45.12-.04.3-.01.28-.16-.38-.11-.73-.48-.76-.83-.66.21.08,1.29-.3,1.69Z"/>
    <path class="cls-1" d="M391.37,121.58c-.01.06.02.11.07.17.04-.06.08-.13.12-.19l-.18.02Z"/>
  </g>
  <g>
    <polygon class="cls-1" points="353.33 144.27 352.5 144.84 352.55 145.36 353.33 144.27"/>
    <path class="cls-1" d="M348.86,146.34l-1.16,1.24c1.51.25.31.88,2.86-.25.58-.76,1.82-2.46,1.3-2.61-.45.49-.87,1.49-1.71,2.04.08-.54.91-1.21.97-1.89-1.42.8-.55.89-1.97,1.94l-.29-.46Z"/>
    <path class="cls-1" d="M348.14,148.55c-.02-.26-.03-.52-.16-.63.02.26-.44.99.16.63Z"/>
    <path class="cls-1" d="M347.44,149.32c-.84.67-.27-.34-.4-.32l-.43,1.38.82-1.06Z"/>
    <path class="cls-1" d="M344.01,152.18c-.12.13-.23.25-.34.38.21-.02.26-.19.34-.38Z"/>
    <path class="cls-1" d="M342.38,153.66c.51-.08.83-.56,1.29-1.1-.03,0-.04,0-.08,0-.62.22-.52-.57.33-1.09.71-.77.99-.29,1.44-1.15l-1.23.46c-1.19,1.11-1.4,2.3-1.75,2.88Z"/>
    <path class="cls-1" d="M344.01,152.18c.13-.13.26-.27.42-.4-.26.1-.35.25-.42.4Z"/>
    <polygon class="cls-1" points="345.76 150.78 346.11 150.33 345.86 150.24 345.76 150.78"/>
    <path class="cls-1" d="M339.59,156.02c-.28-.73,2.08-1.6,1.92-2.23-1.09.95-2.34,1.25-2.35.74l-1.09,1.19c-.23.55.64.56,1.51.3Z"/>
    <path class="cls-1" d="M335.97,156.54c-.04.11-.11.23-.2.33.12-.13.21-.26.2-.33Z"/>
    <path class="cls-1" d="M330.49,162.6l2.44-2.92c-.12.41.13.5-.48,1.1,1.35-.96,1.22-1.46,2.33-2.26.76.28-1.84,1.55-.84,1.54.74-.61,1.83-1.55,2.06-2.49l1.48-.6-.89-.26c-.62.22-.59,1.25-1.22,1.08-.36-.13.09-.57.37-.9-.67.74-2.46,1.23-3.96,2.56-1.6,1.38-.46,2.01-1.31,3.16Z"/>
    <polygon class="cls-1" points="329.85 162.04 329.47 161.95 329.86 162.16 329.85 162.04"/>
    <path class="cls-1" d="M327.28,165.34l1.23-1.58c.2-.08.39-.03.59,0-.17-.09.06-.65-.1-.71-1.13.02-1.72,1.65-2.46,2.39-2.36,1.46-.13-.37-1.38-.21.62-.46.75-.35,1.61-.98-1.8.44-3.03,2.31-3.75,3.13.29-.14.48-.02.91-.44l-.74.87c1.25-.29,2.12-.79,4.1-2.46Z"/>
    <path class="cls-1" d="M329.99,163.18c-.53.49-.78.62-.88.58.26.03.54-.02.88-.58Z"/>
    <path class="cls-1" d="M322.56,167.75c.12-.04.27-.18.45-.38-.12.06-.27.16-.45.38Z"/>
    <path class="cls-1" d="M323.93,167.71l-1.12.79.62-.08c.12-.15.62-.6.5-.71Z"/>
    <path class="cls-1" d="M281.92,198.54c.27.15.75-.04,1.56-.72.12.38-1.01,1.14-1.39,1.69,1.26-.64.24.36.74.44,1.26-.9,1.52-1.7,2.91-2.63,0,.14.12.25.37.22,1.45-1.39,3.95-3.7,5.7-4.63,1.58-1.02,2.59-2,4.13-3.38,5.53-3.95,10.92-8.55,16.91-12.74l.37-1.21c.5.07,1.37-1.06,1.5-.56-.37.17-.62.47-1,.76,1.63-.45,3.24-2.58,4.86-3.55-.25.03-.88-.28-.5-.72.38.73,1.74-1.38,2.74-.98,1.62-.97-.38-.6,1.24-1.7-.13-.5-1.62.97-2.12.9.24-.68,1.49-.96,1.11-1.3-2.61,1.74-6.58,6.09-10.21,9.23l.13-.66c-1.74,1.75-4.88,4.17-6.87,4.79.63.06-3.01,2.01-2.13,2.56-.63.2-.75.34-1.51.81v.39c-1.01.76-1.13.25-2.26,1.15,1-.24.24.49.12,1.02-1.59.63-3.37,1.47-4.77,2.05.17.04.37.08.88-.08-.89.48-.51.7-.63.97-.75.59-1,.11-1.13-.14-1.51.93-1.52,2.23-2.78,2.75l.63.06c-1.39,1.18-2.89,1.72-4.41,3.04-1.12.11,1.01-1.4,1.52-2.1-.4.15-1.11.64-1.44.65-.51.76-1.41,1.95-2.09,2.82.4-1.16-1.61.4-2.19.78Z"/>
    <path class="cls-1" d="M286.21,194.94c.14-.22.26-.41.32-.53-.13.15-.26.29-.51.44.02.08.09.1.19.09Z"/>
    <path class="cls-1" d="M281.92,198.54s-.06-.01-.07-.03c-.14.15-.07.12.07.03Z"/>
    <path class="cls-1" d="M292.04,192.8c-.07.04-.16.09-.23.13-.1.06-.18.12-.27.18l.5-.31Z"/>
    <path class="cls-1" d="M292.06,190.34c.4-.12.92-.32,1.5-.56-.25-.05-.46-.09-1.5.56Z"/>
    <path class="cls-1" d="M302.1,183.32c.25-.29,0-.26.13-.53-.63.46-.75.73-.13.53Z"/>
    <polygon class="cls-1" points="284.38 196.18 283.24 197.2 282.86 197.63 284.38 196.18"/>
    <path class="cls-1" d="M260.95,216.45c1.39-.39,2.79-1.82,4.18-2.73,2.28-2.03-.36-1.13,1.92-2.9l.23,1.14c2.28-1.77,5.69-4.04,7.1-6.25.25-.03.75-.21.24.37,1.52-1.19-.1-1.8,2.17-3.06-1.53,1.96,1,.03.86.94l-.26.29c1.27-1.03,2.78-2.6,3.67-3.21-.13-.24-1.13-.01,0-.9-.5.31-.49-.08-.62-.33-1.02,1.14-1.77,1.48-2.28,2.3-.88.22.38-.43-.5-.21l-.76.98c-.75.46.51-.83-.63-.07,0,.26-.76,1.1-1.65,1.71l.18-.28c-.58.6-1.61,1.16-.94,1.39l-1.12.11.37.22c-1.9,1.22-3.15.96-5.18,3.09.63-.32.25.23,0,.52,1.14-.5,1.01-1.14,1.9-1.86.37.22-.9,1.77.36,1.13-1.51.53-2.28,1.77-3.4,1.37-1.52,1.05-1.79,1.85-3.43,2.78l-.04-.15c.11.73-1.4.67-2.11,2.04l.88-.47c.12.25-.25.54-.77.97q0-.13-.25-.1c.12.5-1.53,1.82-1.66,2.09.76-.46,1.4-1.42,2.16-2.14-.26.54.11.77-.65,1.22Z"/>
    <path class="cls-1" d="M275.16,203.7l-.34.54c.17-.18.31-.36.34-.54Z"/>
    <path class="cls-1" d="M253.74,220.74c-1.01.61.01-.52-1-.03-.77.98,1.51-.27.86.82-.75.2-1.4,1.29-1.78,1.58.26-.54-.36-.87-.61-.84-.26.41-1.26.76-1.9,1.21,1.77-.81-1.15,1.14.49.47.12.37-1.16,1.66-1.92,1.86-.12-.25.39-.55.77-.85.01-.64-1.14.49-1.63.28-1.04,1.65-5.74,5.04-3.74,4.99.63-.19.89-.73,1.41-1.16-1.66.93-.37-.48-.36-.74.76-.33,1.65-1.44,1.64-.92l-.77,1.1c3.42-2.25,7.88-5.63,11.56-8.56l-1.65,1.19c0-.39.77-.98,1.28-1.54l-1.25-.02c.5-.3.89-.73,1.01-.48.39-.68,0-.64-.49-.6,1.14-1.01,1.52-.92,2.16-2.01-2.4,1-1.41,1.68-4.06,2.96l-.03,1.3Z"/>
    <polygon class="cls-1" points="257.94 217.12 257.67 217.79 258.31 217.08 257.94 217.12"/>
    <path class="cls-1" d="M258.15,219.03c-.12-.11.13-.4,0-.51-1.01.61-.76.72,0,.51Z"/>
    <path class="cls-1" d="M245.75,226.13l-1.15,1.01.88-.47c-.12-.12.13-.4.26-.54Z"/>
    <path class="cls-1" d="M238.31,234.03c1.66-1.31,2.17-2.13,4.33-3.23.65-1.09-.99-.43-.85-1.09-1.02.61-.41,1.2-1.3,2.06-.62-.07-1.39,1.14-2.39,1.75.22.06.34.22.22.51Z"/>
    <path class="cls-1" d="M231.49,237c-.78.56-1.37,1.41-2.11,1.69-.07-.28.34-.7.85-.98-.66-.27-.81.71-1.89.99.11,0,.48-.14.32.14-2.18,1.41-.88,1.26-3.81,2.97-.3.42-.69.7-.38.98-1.85.71-1.06.15-3.18,1.14.21.14,1.14.13,1.42.55-3.04,1.34-2.62,2.03-4.62,2.82.17-.16.32-.42.81-.7-.63-.41-1.33,1.12-2.35,1.69l-.26-.55c-.8.7-2.06,2.1-3.4,2.53l.07-.42c-1.93,1.97-4.63,3.66-6.38,5.19l-1.23.43c-2.32,2.24,2.7-1.68,1.33.41-.93-.69-1.12,1.26-2.86,1.96-.95.15,1.36-1.26.29-1.12,0,.7-.69.7-1.38,1.4-.14-.56-1.69,1.12-1.55.28l-2.18,2.8c-.62.07-1.4.69-1.94,1.18,1.5-1.07.06.94,1.88-.06,2.29-1.96,6.25-5.04,9.46-7.01-.1-.84,1.96-1.4,2.09-2.24.21.14.56.14.77.28,1.87-1.55-.7,0-.38-.56.8-.7,1.75-.84,1.83-.57,1.43-.98.04-.28.52-1.12h1.39c4.23-3.38,9.7-8.02,14.94-11.28l-.68-.13c2.42-1.42,3.11-3.66,5.74-4.24l.42-.85c-.22.47.84.33.45,1.04.51-.58,1.28-.91,1.82-1.5l-1.26.63c.53-.92,1.55-1.34,2.04-1.23,1.38-1.64-1.52.02-2.14-.05-1.81,2.49-2.92,1-4.96,2.98-1.23,1.27.43.27.5.55Z"/>
    <path class="cls-1" d="M235.23,235.98c.12-.14.21-.26.26-.36-.1.11-.19.23-.26.36Z"/>
    <path class="cls-1" d="M197.06,262.37c-.18.13-.38.28-.65.5-.15.27.16-.06.65-.5Z"/>
    <path class="cls-1" d="M238.1,233.52s0,0,0,0c0,0,0,0-.01.02,0,0,.02-.01.02-.02Z"/>
    <polygon class="cls-1" points="238.49 231.69 237.85 232.14 238.1 232.25 238.49 231.69"/>
    <path class="cls-1" d="M190.01,266.64l.15.22c0-.11-.02-.2-.15-.22Z"/>
    <path class="cls-1" d="M171.79,279.44l.4-.27c-.15.05-.28.16-.4.27Z"/>
    <path class="cls-1" d="M128.38,310.57c-1.1.96-2.6,2.19-3.24,3.15l-.07-.28c-.56.55-2.4,2.33-.79,1.8l.19-.41c1.29-1.37,1.35-.39,2.64-1.07,1.36-1.09,1.61-2.48,3.01-3.16.53-.41.6-.13.55.15,1.31-.82,1.37-1.79,2.18-2.48,1.5,1.41,3.58-3.15,6.18-3.41,1.09-.96,2.78-1.92,4.06-3.3-.52.97,1.44-.96,1.44-.26-.24-1.26,4.64-2.6,4.06-4,2.28-1.09.03-.14,2.58-1.51.09.14-.3.42-.44.55,1.11-.4,1.07-1.52,2.23-1.52,1.95-1.23.09-.55.98-1.66,2.06-1.24,1.62-.69,3.06-.95-.23-.7,1.13-1.25,1.89-2.22-.26.14-1.68.97-.95.13,2.35-1.51,1.56-1.66,3.58-3.33,1.53-.13-2.11,1.52.11.7-1.14,1.25-2.18,1.94-2.58,2.91,1.84-1.24,3.97-2.91,5.76-4.57,1.16-.69-.35.69.56.14,2.16-1.11,2.55-2.78,4.32-3.61l-.09.56c.65-1.11,3.52-2.36,5.17-3.89-.35,0-.58,0-.42-.28.56.84,2.22-2.22,4.42-2.92-.51-.42,1.02-1.95,2.08-2.79.49-.13.56.14.65.28-2.02.98-1.34,1.81-2.59,3.07.99-1.11,3.15-2.23,3.92-3.35l-.12.7c1.69-1.11.78-1.95,2.77-2.79l.04.42c3.42-2.51,7.86-4.89,10.15-7.54.06-.42-1.75,0-1.95-.14-1.5,1.39-2.14,2.51-3.25,3.63l-.32-.48c-.06.53-1.44,1.8-.42,1.45-.86.98-1.08.15-2.06,1.26-.25-.56.41-1.12.13-1.53l-.86.98c.19-.42-.73.27-.56-.14-1.48,1.95-2.81,1.67-4.6,3.34l1.16-.69c.19.28-.46.7-.88,1.12-.81,0-1.09.28-2.22.83-.72.84-.85,1.67-2.03,2.51-.12-.7-2.16,1.11-2.69.83.11.7-2.15,1.81-2.1,2.22-.56.55-1.46,1.11-1.65.83.08-.08.23-.26.41-.43l-.64.43c.02-.1-.04-.13.03-.19-.57.39-.31.77-1.22,1.03-.09-.14.3-.42.59-.7-1.56.97-2.06,2.64-3.64,3.05-.07.42-1.79,1.67-1.03,1.95-.6.14-.73-.43-1.94.54-.4.98-1.53.83-2.28,1.8.93-1.39-.09-.14.7-1.39-1,.41-1.83,1.94-3.39,2.91-.23,0-.32-.14-.56-.14-.44.56-.81,1.39-1.63,1.38l.3.28c-1.14.55-2.48,1.65-3.83,2.06l-.84,1.53c-2.18.54-4.07,2.75-5.03,4.28-.65.41-1.67.96-1.77.82.11-.15.29-.42.52-.71-.94.62-2.32,1.06-2.48,1.95-.84.82-.95.13-1.72.54-1.41,2.08-6.06,3.42-5.86,4.95.79-.54,2.44-1.36,3.91-2.46-.3.41.16.42-.38.83-1.47,1.1-2.53,1.22-3.91,2.46l-.32-.84c-3.09,1.07-4.27,4.4-7.01,4.78Z"/>
    <path class="cls-1" d="M147.7,297.15l-1.35.4.33.23c.3-.29.64-.53,1.02-.63Z"/>
    <path class="cls-1" d="M146.68,297.78c-.2.19-.38.39-.53.59.24-.16.46-.34.62-.54l-.09-.06Z"/>
    <path class="cls-1" d="M124.1,313.71c-.26.14-.77.4-1.2.81.37-.13,1.03-.54,1.2-.81Z"/>
    <polygon class="cls-1" points="122.97 314.8 123.6 314.53 123.62 314.39 122.97 314.8"/>
    <path class="cls-1" d="M91.06,337.2l-1.5,1.61c-.46-.02-2.32,1.57-1.91.75-.72,1.23-3.4,2.2-2.03,2.41,5.12-3.65,12.65-7.98,18.24-12.71l-.76.95c2.73-2.71,4.74-2.23,6.45-5.12l.07.84c1.55-.8,2.15-2.73,4.08-3.11l-.31-.15c.39-.27.63-.26,1.03-.53h-.23c.87-.96,1.54-1.36,2.68-1.9.2.15-.42.41-.71.68.61-.12,1.13-1.09,1.94-1.64.74-.26.18.28.15.43,2.21-1.91,3.75-2.02,4.82-4.09.05-.28-.83.12-.01-.56-1.78.81-2.81,2.04-4.09,3.27l.4-.27c-.54,1.67-1,.4-2.59,2.04.24-.69,1.05-1.23,1.23-1.65-2.58.78-2.69,2.59-4.68,2.68l.14-.13c-.37.13-.83.68-1.25,1.09.23,0,.75-.26,1.13-.4-.43.41-.41.97-.47,1.25-.81-.02-.6.68-1.6,1.08-.55-.15.5-.82.69-1.24l-.88.95c-.94.67-1.21.25-1.82.37-.63.82.61-.13.21.7-1.32.25-5.64,3.33-7.5,5.09.69-.53,0-.56.91-1.09-.37.13-1.37,1.07-1.19,1.36-1.29,1.21-3.25,2.27-4.78,2.91l.58.02c-.83,1.23-3.11,1.57-4.96,3.16l.05-.02c-.61.49-.72,1.54-2.01,2.18.11-.55.77-.95.49-1.24Z"/>
    <path class="cls-1" d="M84.33,342.48l.41-.82c-.79.38-1.38,1.47-1.06,1.63.44-.4,1.2-.64,1.14-.92-.12,0-.2-.15-.49.11Z"/>
    <path class="cls-1" d="M70.49,351.04c-.22.25-.06.36-.12.54,3-1.76,6.52-4.14,7.88-4.56,1.06-.49.87-1.2,2.02-2.11l.81.05c.51-.67,2.81-1.52,1.68-1.72-.11-.01-.38.67-1.02.92l-.05-.28-1.26.91.24-.55c-2.04.73-.73,1.64-3.1,2.75l-.34-.58c-1.5.88-2.13,1.52-3.65,1.97,0,0,.16.3.35.03.26-.12.72-.08.65.19-1.99,1.8.15-.55-1.57.15-1.67,1.56-5.25,4-6.64,4.07,1.13-.13-.06,1-1.29,1.51-.65.03.22-.54.32-.81-.59.19-1.09.24-1.61.57.85.03.67.71-.81,1.46.43-.1.84-.22,1.24-.36.38-.15.7-.32,1.03-.49.67-.35,1.21-.77,1.78-1.19,1.11-.85,2.15-1.75,3.48-2.46Z"/>
    <path class="cls-1" d="M70,351.97c.26-.17.35-.29.38-.39-.35.21-.71.41-1.04.61l.66-.21Z"/>
  </g>
  <g>
    <polygon class="cls-1" points="365.83 168.53 364.98 169.03 365.01 169.53 365.83 168.53"/>
    <path class="cls-1" d="M361.33,170.25l-1.18,1.17c1.49.33.27.87,2.82-.09.59-.72,1.89-2.29,1.39-2.49-.48.45-.93,1.4-1.78,1.89.1-.53.94-1.14,1.04-1.8-1.45.69-.58.85-2.02,1.79l-.27-.48Z"/>
    <path class="cls-1" d="M360.55,172.4c-.01-.26-.02-.51-.14-.63,0,.26-.46.96.14.63Z"/>
    <path class="cls-1" d="M359.85,173.13c-.84.62-.26-.35-.38-.34l-.44,1.34.83-1.01Z"/>
    <path class="cls-1" d="M356.43,175.81c-.12.12-.23.24-.34.36.21,0,.25-.18.34-.36Z"/>
    <path class="cls-1" d="M354.83,177.23c.5-.06.82-.52,1.27-1.05-.02,0-.04,0-.08,0-.61.2-.51-.58.33-1.07.71-.73.98-.25,1.44-1.08l-1.21.41c-1.19,1.05-1.4,2.23-1.74,2.79Z"/>
    <path class="cls-1" d="M356.43,175.81c.13-.13.26-.26.42-.38-.25.09-.35.24-.42.38Z"/>
    <polygon class="cls-1" points="358.17 174.5 358.52 174.07 358.27 173.97 358.17 174.5"/>
    <path class="cls-1" d="M352.08,179.49c-.27-.73,2.04-1.53,1.89-2.16-1.08.91-2.29,1.18-2.31.67l-1.07,1.16c-.23.54.64.57,1.49.33Z"/>
    <path class="cls-1" d="M348.53,179.93c-.04.11-.11.22-.2.33.11-.13.2-.25.2-.33Z"/>
    <path class="cls-1" d="M343.17,185.83l2.37-2.85c-.11.4.14.5-.46,1.08,1.32-.92,1.19-1.42,2.27-2.19.75.29-1.8,1.5-.82,1.51.72-.6,1.8-1.49,2.02-2.42l1.45-.56-.87-.28c-.6.21-.57,1.22-1.19,1.04-.35-.14.08-.56.37-.89-.66.72-2.42,1.17-3.88,2.45-1.56,1.34-.43,1.98-1.26,3.1Z"/>
    <polygon class="cls-1" points="342.54 185.26 342.17 185.17 342.55 185.39 342.54 185.26"/>
    <path class="cls-1" d="M340.05,188.5l1.19-1.55c.2-.08.39-.02.58,0-.17-.09.05-.64-.11-.7-1.11,0-1.67,1.61-2.39,2.34-2.29,1.43-.14-.37-1.36-.22.6-.45.73-.34,1.57-.96-1.77.41-2.94,2.26-3.64,3.06.28-.14.47-.01.89-.43l-.71.86c1.22-.28,2.07-.76,3.99-2.4Z"/>
    <path class="cls-1" d="M342.7,186.4c-.52.48-.76.6-.86.56.26.03.53-.01.86-.56Z"/>
    <path class="cls-1" d="M335.45,190.84c.12-.04.26-.18.44-.37-.12.06-.26.16-.44.37Z"/>
    <path class="cls-1" d="M336.8,190.81l-1.08.77.61-.07c.12-.14.6-.59.47-.7Z"/>
    <path class="cls-1" d="M296.27,221.28c.27.15.74-.04,1.51-.71.13.37-.96,1.13-1.32,1.68,1.22-.64.25.36.74.44,1.22-.9,1.45-1.69,2.78-2.61,0,.13.12.25.37.22,1.39-1.38,3.77-3.68,5.46-4.6,1.53-1.02,2.49-1.99,3.97-3.36,5.33-3.91,10.5-8.47,16.31-12.59l.34-1.19c.49.07,1.33-1.04,1.46-.55-.36.17-.61.46-.96.75,1.59-.44,3.14-2.54,4.71-3.48-.24.03-.87-.28-.51-.71.39.72,1.68-1.35,2.68-.95,1.57-.95-.39-.6,1.18-1.68-.14-.5-1.57.95-2.06.88.23-.67,1.45-.94,1.07-1.28-2.52,1.72-6.36,5.98-9.85,9.08l.11-.66c-1.67,1.73-4.69,4.12-6.64,4.73.62.06-2.9,1.99-2.03,2.54-.61.2-.73.34-1.46.8v.39c-.96.75-1.1.25-2.18,1.14.98-.23.25.49.14,1.01-1.55.62-3.27,1.45-4.63,2.03.17.04.37.07.86-.08-.86.48-.48.69-.59.96-.72.59-.98.11-1.11-.13-1.45.93-1.43,2.21-2.65,2.73l.62.06c-1.33,1.17-2.79,1.71-4.24,3.03-1.1.12.95-1.39,1.43-2.08-.39.15-1.07.64-1.4.65-.48.75-1.32,1.94-1.97,2.8.36-1.15-1.57.41-2.13.78Z"/>
    <path class="cls-1" d="M300.37,217.7c.13-.21.24-.4.3-.53-.13.14-.24.28-.48.44.03.08.09.1.19.09Z"/>
    <path class="cls-1" d="M296.27,221.28s-.05,0-.07-.03c-.13.15-.07.12.07.03Z"/>
    <path class="cls-1" d="M306.04,215.57c-.07.04-.15.09-.22.13-.09.06-.17.12-.26.18l.49-.31Z"/>
    <path class="cls-1" d="M305.99,213.13c.39-.12.89-.31,1.46-.55-.25-.05-.45-.09-1.46.55Z"/>
    <path class="cls-1" d="M315.68,206.18c.24-.29,0-.26.11-.53-.61.45-.72.72-.11.53Z"/>
    <polygon class="cls-1" points="298.62 218.94 297.53 219.96 297.17 220.38 298.62 218.94"/>
    <path class="cls-1" d="M276.24,239.14c1.35-.4,2.68-1.82,4.01-2.73,2.17-2.02-.39-1.11,1.79-2.88l.27,1.13c2.18-1.77,5.46-4.04,6.77-6.23.25-.03.73-.21.25.36,1.45-1.19-.15-1.78,2.04-3.04-1.45,1.95.99.02.88.93l-.24.29c1.21-1.03,2.65-2.59,3.51-3.2-.13-.24-1.11,0-.02-.89-.48.31-.49-.08-.62-.32-.96,1.13-1.7,1.47-2.17,2.29-.86.22.36-.42-.49-.21l-.72.98c-.73.46.48-.82-.62-.06,0,.26-.71,1.1-1.57,1.7l.16-.28c-.55.6-1.55,1.15-.88,1.38l-1.1.12.37.22c-1.82,1.22-3.06.97-4.99,3.1.61-.32.25.23.01.51,1.1-.51.96-1.13,1.81-1.86.38.21-.83,1.75.39,1.11-1.46.54-2.18,1.77-3.29,1.38-1.45,1.05-1.69,1.85-3.28,2.78l-.05-.15c.14.72-1.35.67-2.01,2.03l.85-.47c.13.24-.23.53-.72.97q0-.13-.25-.1c.14.5-1.44,1.82-1.56,2.08.73-.46,1.33-1.42,2.05-2.14-.23.54.13.76-.59,1.22Z"/>
    <path class="cls-1" d="M289.78,226.43l-.32.54c.16-.18.29-.36.32-.54Z"/>
    <path class="cls-1" d="M269.3,243.46c-.97.62,0-.51-.98-.02-.72.97,1.47-.28.87.81-.73.2-1.33,1.29-1.69,1.59.24-.54-.39-.85-.63-.83-.24.41-1.22.77-1.82,1.22,1.71-.82-1.08,1.14.5.46.13.37-1.08,1.66-1.81,1.86-.12-.24.36-.55.73-.85-.01-.64-1.1.5-1.59.29-.96,1.64-5.45,5.06-3.49,4.98.61-.2.85-.73,1.34-1.17-1.59.94-.38-.47-.38-.73.73-.33,1.57-1.44,1.58-.93l-.72,1.1c3.28-2.26,7.53-5.66,11.05-8.6l-1.58,1.19c0-.39.72-.98,1.2-1.54h-1.23c.49-.31.85-.73.97-.49.35-.68-.02-.64-.5-.59,1.09-1.01,1.46-.92,2.06-2.01-2.32,1.01-1.33,1.68-3.88,2.97l.02,1.28Z"/>
    <polygon class="cls-1" points="273.3 239.84 273.06 240.5 273.67 239.8 273.3 239.84"/>
    <path class="cls-1" d="M273.57,241.73c-.13-.11.12-.39-.01-.51-.97.62-.72.71.01.51Z"/>
    <path class="cls-1" d="M261.64,248.88l-1.09,1.01.85-.47c-.12-.12.12-.39.24-.54Z"/>
    <path class="cls-1" d="M254.65,256.79c1.58-1.32,2.05-2.14,4.12-3.25.6-1.09-.99-.41-.88-1.06-.98.62-.35,1.19-1.2,2.05-.61-.07-1.32,1.14-2.28,1.76.22.06.34.21.23.5Z"/>
    <path class="cls-1" d="M248.06,259.83c-.75.57-1.29,1.41-2,1.71-.08-.28.3-.7.79-.99-.66-.26-.76.71-1.81,1.01.11,0,.46-.14.32.13-2.08,1.43-.81,1.26-3.62,3-.27.42-.64.71-.33.97-1.78.74-1.04.16-3.08,1.18.21.13,1.12.11,1.42.52-2.93,1.38-2.49,2.06-4.41,2.87.16-.16.3-.43.77-.71-.64-.4-1.26,1.14-2.23,1.72l-.28-.54c-.76.71-1.93,2.12-3.23,2.57l.05-.42c-1.81,1.98-4.38,3.71-6.02,5.28l-1.19.45c-2.17,2.27,2.57-1.73,1.32.38-.95-.67-1.04,1.27-2.71,2.01-.93.17,1.27-1.28.23-1.11.04.69-.64.71-1.28,1.42-.17-.55-1.6,1.15-1.51.32l-2,2.82c-.61.09-1.34.72-1.85,1.21,1.42-1.1.1.93,1.84-.11,2.15-2,5.89-5.14,8.94-7.16-.14-.83,1.85-1.43,1.94-2.27.21.13.55.12.77.26,1.76-1.57-.68.02-.4-.54.75-.71,1.68-.87,1.77-.6,1.36-1,.02-.27.46-1.12l1.37-.03c4-3.42,9.17-8.12,14.18-11.42l-.67-.12c2.32-1.44,2.9-3.67,5.47-4.28l.38-.85c-.2.47.84.31.49,1.02.48-.59,1.22-.92,1.72-1.51l-1.22.64c.48-.92,1.47-1.35,1.96-1.25,1.29-1.65-1.49.04-2.1-.02-1.68,2.49-2.83,1.03-4.75,3.02-1.16,1.27.43.26.51.54Z"/>
    <path class="cls-1" d="M251.7,258.76c.11-.14.19-.26.24-.36-.1.11-.18.23-.24.36Z"/>
    <path class="cls-1" d="M215.4,285.62c-.17.13-.36.29-.61.51-.13.27.15-.07.61-.51Z"/>
    <path class="cls-1" d="M254.41,256.29s0,0,0,0c0,0,0,0-.01.02,0,0,.02-.01.02-.02Z"/>
    <polygon class="cls-1" points="254.73 254.48 254.12 254.93 254.36 255.03 254.73 254.48"/>
    <path class="cls-1" d="M208.71,290.04l.16.21c0-.11-.03-.19-.16-.21Z"/>
    <path class="cls-1" d="M191.55,303.29l.38-.28c-.14.06-.27.17-.38.28Z"/>
    <path class="cls-1" d="M151.25,336.14c-1,1.02-2.36,2.33-2.9,3.32l-.09-.27c-.5.58-2.14,2.45-.61,1.82l.15-.42c1.14-1.43,1.29-.48,2.48-1.22,1.23-1.16,1.35-2.55,2.67-3.3.49-.44.58-.16.55.11,1.21-.89,1.19-1.86,1.93-2.58,1.59,1.31,3.23-3.34,5.78-3.72,1-1,2.57-2.04,3.72-3.47-.43.99,1.34-1.02,1.39-.33-.34-1.23,4.35-2.8,3.68-4.16,2.15-1.19.02-.14,2.42-1.62.1.13-.27.43-.39.57,1.06-.45.94-1.56,2.08-1.61,1.82-1.31.05-.55.84-1.69,1.94-1.32,1.55-.75,2.94-1.08-.27-.68,1.03-1.28,1.7-2.27-.24.15-1.58,1.03-.93.17,2.2-1.6,1.41-1.71,3.29-3.43,1.49-.19-1.97,1.59.16.69-1.04,1.28-2.02,2.01-2.34,2.99,1.72-1.31,3.7-3.03,5.35-4.75,1.09-.73-.3.7.55.12,2.05-1.18,2.33-2.85,4-3.74l-.06.55c.56-1.12,3.3-2.47,4.83-4.04-.34.01-.57.02-.43-.26.6.81,2.05-2.27,4.17-3.03-.53-.4.88-1.96,1.88-2.82.47-.15.56.12.66.26-1.92,1.03-1.21,1.83-2.37,3.12.91-1.13,2.97-2.31,3.65-3.43l-.07.69c1.59-1.15.65-1.95,2.57-2.84l.07.41c3.22-2.59,7.44-5.07,9.55-7.75.04-.42-1.71.05-1.93-.08-1.4,1.42-1.97,2.54-3,3.68l-.34-.47c-.03.52-1.31,1.83-.33,1.45-.79.99-1.05.18-1.95,1.31-.28-.55.34-1.12.04-1.52l-.79.99c.16-.42-.71.29-.55-.12-1.34,1.98-2.67,1.74-4.33,3.45l1.1-.72c.2.27-.41.71-.8,1.13-.79.02-1.06.31-2.14.9-.66.85-.74,1.68-1.85,2.55-.16-.68-2.05,1.17-2.59.91.15.68-2.01,1.86-1.93,2.27-.51.57-1.36,1.15-1.57.89.07-.08.21-.27.38-.44l-.6.45c.01-.1-.04-.13.02-.19-.53.4-.25.77-1.13,1.06-.1-.14.27-.43.53-.72-1.47,1.02-1.86,2.7-3.38,3.16-.05.42-1.65,1.72-.88,1.97-.58.16-.75-.39-1.87.61-.33.98-1.45.88-2.12,1.87.82-1.41-.1-.13.59-1.4-.95.45-1.67,1.99-3.13,3.01-.23,0-.33-.13-.55-.12-.4.57-.71,1.41-1.5,1.44l.31.26c-1.08.59-2.33,1.74-3.62,2.21l-.71,1.55c-2.1.64-3.79,2.92-4.61,4.47-.61.44-1.57,1.03-1.67.9.1-.15.25-.43.46-.72-.88.66-2.2,1.16-2.29,2.05-.76.85-.92.17-1.64.62-1.22,2.13-5.68,3.69-5.36,5.19.73-.58,2.29-1.47,3.64-2.63-.26.42.19.4-.3.84-1.35,1.16-2.39,1.34-3.64,2.64l-.38-.81c-2.94,1.24-3.8,4.61-6.45,5.15Z"/>
    <path class="cls-1" d="M169.11,321.81l-1.29.47.34.21c.27-.3.59-.55.95-.68Z"/>
    <path class="cls-1" d="M168.16,322.49c-.18.19-.34.41-.48.61.23-.17.43-.36.57-.56l-.09-.05Z"/>
    <path class="cls-1" d="M147.33,339.5c-.24.15-.72.45-1.1.88.35-.15.96-.6,1.1-.88Z"/>
    <polygon class="cls-1" points="146.33 340.65 146.92 340.35 146.93 340.22 146.33 340.65"/>
    <path class="cls-1" d="M117.57,365.38l-1.25,1.74c-.45.03-2.05,1.79-1.76.95-.54,1.28-3,2.54-1.64,2.59,4.48-4.14,11.23-9.19,16.18-14.29l-.64,1c2.37-2.89,4.39-2.58,5.75-5.57l.16.82c1.43-.91,1.81-2.87,3.66-3.38l-.32-.13c.36-.3.59-.31.95-.6h-.23c.75-1,1.36-1.45,2.43-2.06.21.13-.37.44-.62.73.58-.17,1-1.16,1.73-1.76.7-.31.21.27.19.41,1.99-2.04,3.48-2.24,4.34-4.35.02-.28-.8.17-.06-.55-1.67.91-2.57,2.2-3.7,3.5l.37-.3c-.37,1.68-.95.45-2.33,2.19.17-.7.9-1.3,1.04-1.71-2.45.96-2.37,2.76-4.31,3l.12-.14c-.35.16-.74.73-1.11,1.17.23-.01.71-.32,1.06-.48-.38.44-.31.99-.33,1.27-.8.04-.51.72-1.45,1.19-.56-.11.4-.85.55-1.27l-.76,1.01c-.85.74-1.16.34-1.74.51-.53.86.58-.17.28.68-1.27.35-5.16,3.74-6.78,5.63.61-.59-.07-.55.77-1.15-.35.16-1.22,1.17-1.02,1.44-1.13,1.3-2.91,2.53-4.32,3.31l.57-.04c-.66,1.29-2.84,1.84-4.44,3.61l.04-.03c-.53.54-.5,1.59-1.67,2.35.04-.56.63-1.01.31-1.27Z"/>
    <path class="cls-1" d="M111.73,371.29l.29-.85c-.71.46-1.13,1.6-.8,1.71.37-.44,1.07-.76.98-1.03-.11,0-.21-.13-.46.17Z"/>
    <path class="cls-1" d="M99.81,381.58c-.16.28.02.36,0,.55,2.49-2.22,5.49-5.04,6.74-5.62.94-.62.64-1.29,1.61-2.34l.79-.05c.38-.73,2.5-1.83,1.37-1.89-.11,0-.27.7-.86,1.02l-.09-.27-1.08,1.05.15-.57c-1.87.98-.44,1.7-2.56,3.11l-.42-.52c-1.3,1.07-1.8,1.8-3.19,2.45,0,0,.21.27.34-.02.23-.15.68-.18.67.09-1.59,2.06.04-.56-1.49.39-1.35,1.76-4.23,4.75-5.5,5.12,1.04-.36.17.95-.78,1.72-.58.18.03-.55.05-.83-.48.32-.94.49-1.3.93.8-.2.76.5-.09,1.52,2.46-1.57,3.39-3.99,5.64-5.82Z"/>
    <path class="cls-1" d="M99.53,382.57c.21-.21.27-.34.28-.44-.29.26-.59.52-.87.76l.59-.32Z"/>
  </g>
  <g>
    <polygon class="cls-1" points="378.13 199.11 377.33 199.62 377.38 200.11 378.13 199.11"/>
    <path class="cls-1" d="M373.83,200.89l-1.1,1.16c1.47.31.31.86,2.76-.12.54-.72,1.73-2.3,1.23-2.48-.44.45-.84,1.4-1.64,1.9.08-.52.86-1.14.92-1.79-1.37.71-.52.84-1.88,1.8l-.29-.47Z"/>
    <path class="cls-1" d="M373.16,203.01c-.02-.25-.04-.51-.16-.62.02.25-.41.95.16.62Z"/>
    <path class="cls-1" d="M372.49,203.73c-.8.62-.27-.34-.39-.33l-.38,1.33.77-1Z"/>
    <path class="cls-1" d="M369.25,206.39c-.12.12-.22.24-.32.36.2,0,.24-.17.32-.36Z"/>
    <path class="cls-1" d="M367.71,207.77c.49-.06.79-.51,1.21-1.03-.02,0-.04,0-.08,0-.59.2-.52-.57.29-1.05.67-.72.95-.25,1.37-1.07l-1.17.4c-1.13,1.03-1.3,2.19-1.62,2.74Z"/>
    <path class="cls-1" d="M369.25,206.39c.12-.13.25-.25.4-.38-.25.09-.34.23-.4.38Z"/>
    <polygon class="cls-1" points="370.91 205.09 371.23 204.66 370.99 204.57 370.91 205.09"/>
    <path class="cls-1" d="M365.09,209.99c-.29-.72,1.95-1.5,1.79-2.12-1.03.89-2.21,1.16-2.25.65l-1.01,1.13c-.21.53.64.56,1.47.33Z"/>
    <path class="cls-1" d="M361.62,210.39c-.04.11-.1.22-.19.32.11-.13.19-.25.19-.32Z"/>
    <path class="cls-1" d="M356.53,216.17l2.25-2.79c-.1.39.15.49-.42,1.06,1.27-.9,1.12-1.4,2.16-2.15.74.29-1.73,1.47-.76,1.48.69-.59,1.72-1.46,1.91-2.38l1.41-.54-.86-.28c-.59.19-.53,1.2-1.14,1.02-.35-.14.07-.55.33-.87-.62.7-2.34,1.13-3.73,2.39-1.49,1.31-.38,1.95-1.16,3.05Z"/>
    <polygon class="cls-1" points="355.9 215.61 355.53 215.52 355.91 215.73 355.9 215.61"/>
    <path class="cls-1" d="M353.54,218.78l1.13-1.52c.19-.07.38-.02.57.01-.17-.09.03-.63-.12-.69-1.08-.01-1.6,1.57-2.29,2.28-2.21,1.38-.14-.36-1.34-.24.58-.44.7-.33,1.52-.92-1.72.39-2.82,2.2-3.5,2.98.27-.13.46,0,.87-.41l-.68.83c1.2-.25,2.01-.72,3.85-2.32Z"/>
    <path class="cls-1" d="M356.08,216.73c-.5.47-.73.59-.83.55.25.03.52,0,.83-.55Z"/>
    <path class="cls-1" d="M349.08,221.03c.12-.04.25-.17.42-.36-.12.06-.25.15-.42.36Z"/>
    <path class="cls-1" d="M350.4,221.02l-1.05.74.6-.06c.11-.14.58-.57.45-.68Z"/>
    <path class="cls-1" d="M311.28,250.47c.27.15.72-.03,1.47-.68.14.37-.92,1.1-1.26,1.63,1.18-.61.25.36.73.44,1.17-.86,1.39-1.65,2.68-2.53,0,.13.13.25.36.22,1.34-1.34,3.63-3.57,5.27-4.45,1.48-.98,2.4-1.92,3.82-3.25,5.14-3.79,10.14-8.19,15.73-12.18l.31-1.17c.48.08,1.28-1.01,1.42-.52-.35.16-.58.44-.93.73,1.55-.41,3.02-2.46,4.54-3.38-.24.02-.86-.29-.51-.71.4.72,1.62-1.31,2.6-.9,1.52-.92-.39-.59,1.12-1.64-.15-.49-1.52.91-2,.84.21-.66,1.4-.91,1.02-1.25-2.45,1.65-6.09,5.83-9.46,8.83l.09-.65c-1.6,1.68-4.52,4-6.42,4.56.6.07-2.81,1.92-1.94,2.47-.6.19-.71.32-1.41.77v.38c-.92.72-1.06.23-2.1,1.09.95-.22.25.49.16,1-1.5.59-3.18,1.38-4.5,1.93.17.04.36.08.84-.07-.83.46-.46.68-.57.94-.7.57-.96.09-1.09-.15-1.41.89-1.36,2.16-2.55,2.65l.61.07c-1.28,1.14-2.7,1.65-4.1,2.92-1.08.1.91-1.35,1.37-2.03-.38.14-1.04.61-1.36.62-.45.73-1.27,1.88-1.88,2.72.33-1.12-1.53.37-2.07.74Z"/>
    <path class="cls-1" d="M315.24,247.01c.13-.21.23-.39.28-.51-.12.14-.23.28-.47.42.03.08.09.1.18.09Z"/>
    <path class="cls-1" d="M311.28,250.47s-.05-.01-.07-.03c-.12.15-.06.12.07.03Z"/>
    <path class="cls-1" d="M320.76,244.99c-.06.04-.15.08-.22.12-.09.06-.16.11-.25.17l.47-.3Z"/>
    <path class="cls-1" d="M320.67,242.59c.38-.11.87-.3,1.42-.52-.24-.06-.44-.09-1.42.52Z"/>
    <path class="cls-1" d="M330.02,235.87c.23-.28,0-.25.1-.52-.59.44-.69.7-.1.52Z"/>
    <polygon class="cls-1" points="313.54 248.19 312.49 249.18 312.14 249.59 313.54 248.19"/>
    <path class="cls-1" d="M291.95,267.73c1.31-.37,2.59-1.75,3.89-2.62,2.1-1.95-.4-1.11,1.71-2.81l.28,1.12c2.1-1.71,5.28-3.89,6.54-6.03.24-.02.72-.19.25.36,1.4-1.14-.18-1.76,1.95-2.96-1.38,1.9.96.04.87.93l-.23.28c1.17-1,2.55-2.52,3.38-3.1-.13-.24-1.08-.03-.04-.88-.46.29-.48-.08-.61-.33-.92,1.1-1.64,1.42-2.09,2.22-.83.2.35-.41-.49-.21l-.69.95c-.7.44.46-.81-.61-.07.01.25-.68,1.07-1.51,1.65l.16-.27c-.53.58-1.5,1.11-.84,1.35l-1.08.1.37.22c-1.77,1.17-2.98.9-4.84,2.96.59-.31.25.23.02.51,1.07-.48.92-1.1,1.74-1.8.37.22-.79,1.72.39,1.1-1.42.5-2.11,1.71-3.2,1.3-1.41,1.01-1.63,1.8-3.16,2.68l-.05-.15c.14.72-1.32.64-1.94,1.97l.83-.45c.13.24-.22.52-.69.94q0-.12-.25-.1c.14.49-1.38,1.77-1.5,2.03.71-.44,1.28-1.38,1.98-2.07-.22.52.14.75-.56,1.19Z"/>
    <path class="cls-1" d="M305.02,255.43l-.3.52c.16-.17.28-.35.3-.52Z"/>
    <path class="cls-1" d="M285.22,271.86c-.94.59-.01-.51-.96-.04-.69.95,1.44-.25.86.81-.71.18-1.28,1.25-1.64,1.53.22-.53-.39-.85-.63-.83-.23.4-1.18.73-1.77,1.16,1.66-.77-1.05,1.1.5.46.13.37-1.04,1.61-1.75,1.8-.13-.24.35-.54.7-.82-.02-.63-1.07.47-1.56.26-.92,1.6-5.27,4.88-3.35,4.85.6-.18.82-.71,1.3-1.13-1.54.9-.38-.47-.38-.73.71-.31,1.52-1.39,1.53-.89l-.69,1.07c3.18-2.17,7.31-5.42,10.71-8.25l-1.53,1.15c-.01-.38.69-.95,1.16-1.49l-1.2-.03c.47-.29.82-.7.95-.46.34-.66-.02-.63-.5-.59,1.05-.98,1.41-.88,1.98-1.95-2.26.96-1.27,1.63-3.76,2.86l.03,1.27Z"/>
    <polygon class="cls-1" points="289.08 268.36 288.86 269.01 289.44 268.33 289.08 268.36"/>
    <path class="cls-1" d="M289.38,270.23c-.12-.11.11-.39-.02-.5-.94.59-.7.69.02.5Z"/>
    <path class="cls-1" d="M277.79,277.05l-1.05.97.83-.45c-.12-.12.11-.39.23-.52Z"/>
    <path class="cls-1" d="M271.03,284.7c1.53-1.26,1.99-2.06,4-3.11.57-1.06-.97-.43-.87-1.07-.95.59-.33,1.17-1.15,2-.6-.08-1.28,1.1-2.22,1.69.21.06.34.22.23.5Z"/>
    <path class="cls-1" d="M264.62,287.54c-.72.55-1.25,1.36-1.94,1.64-.08-.27.29-.68.77-.95-.65-.27-.74.68-1.77.95.11,0,.45-.13.31.14-2.02,1.36-.79,1.23-3.52,2.86-.26.41-.62.68-.32.95-1.74.68-1.01.13-3,1.09.21.14,1.1.14,1.39.55-2.86,1.28-2.42,1.97-4.3,2.72.16-.15.29-.41.75-.68-.63-.41-1.23,1.09-2.17,1.63l-.28-.54c-.74.68-1.88,2.04-3.15,2.44l.05-.41c-1.76,1.91-4.27,3.54-5.87,5.03l-1.16.41c-2.12,2.17,2.51-1.62,1.3.41-.93-.69-1.02,1.22-2.65,1.9-.91.13,1.24-1.22.22-1.09.04.68-.63.68-1.25,1.36-.17-.55-1.56,1.09-1.48.26l-1.96,2.72c-.6.07-1.31.67-1.81,1.14,1.38-1.04.1.92,1.8-.04,2.1-1.9,5.76-4.88,8.74-6.78-.14-.82,1.81-1.36,1.9-2.18.21.14.54.14.75.28,1.72-1.5-.67,0-.39-.55.74-.68,1.64-.81,1.73-.54,1.32-.95.02-.27.44-1.09h1.34c3.91-3.25,8.93-7.76,13.81-10.89l-.66-.14c2.26-1.36,2.81-3.55,5.31-4.1l.36-.83c-.19.46.82.33.49,1.02.46-.57,1.18-.88,1.67-1.45l-1.18.6c.47-.9,1.43-1.3,1.9-1.18,1.24-1.59-1.46,0-2.06-.07-1.62,2.42-2.76.95-4.62,2.87-1.12,1.23.42.27.51.55Z"/>
    <path class="cls-1" d="M268.16,286.58c.11-.13.18-.25.24-.35-.09.11-.17.22-.24.35Z"/>
    <path class="cls-1" d="M232.78,312.07c-.16.12-.35.27-.6.48-.13.26.15-.06.6-.48Z"/>
    <path class="cls-1" d="M270.8,284.2s0,0,0,0c0,0,0,0-.01.02,0,0,.02-.01.02-.02Z"/>
    <polygon class="cls-1" points="271.09 282.42 270.5 282.85 270.74 282.96 271.09 282.42"/>
    <path class="cls-1" d="M226.22,316.19l.15.22c0-.11-.03-.19-.15-.22Z"/>
    <path class="cls-1" d="M209.36,328.58l.37-.26c-.14.05-.27.15-.37.26Z"/>
    <path class="cls-1" d="M169.22,358.71c-1.01.93-2.39,2.13-2.96,3.06l-.08-.27c-.51.53-2.19,2.26-.67,1.75l.17-.4c1.17-1.33,1.28-.37,2.48-1.02,1.25-1.06,1.42-2.42,2.73-3.07.49-.4.57-.12.54.15,1.22-.79,1.23-1.75,1.98-2.41,1.5,1.39,3.29-3.05,5.77-3.28,1-.93,2.57-1.86,3.73-3.2-.45.95,1.34-.93,1.37-.25-.3-1.24,4.33-2.51,3.7-3.88,2.13-1.06.02-.14,2.41-1.46.09.14-.27.41-.4.54,1.05-.39.95-1.48,2.07-1.47,1.81-1.19.06-.54.86-1.62,1.92-1.2,1.53-.66,2.89-.91-.25-.69,1.03-1.21,1.7-2.16-.24.14-1.56.93-.91.12,2.18-1.46,1.41-1.62,3.27-3.23,1.46-.11-1.95,1.47.14.69-1.03,1.21-2,1.89-2.33,2.83,1.7-1.2,3.67-2.82,5.3-4.43,1.08-.67-.3.68.54.15,2.02-1.07,2.32-2.7,3.97-3.5l-.06.54c.57-1.08,3.27-2.28,4.77-3.77-.34,0-.56,0-.41-.28.58.83,2.02-2.16,4.1-2.82-.51-.41.88-1.9,1.86-2.71.46-.13.54.14.64.28-1.89.94-1.19,1.76-2.34,2.98.9-1.08,2.92-2.16,3.6-3.24l-.08.68c1.57-1.07.65-1.9,2.52-2.71l.06.41c3.16-2.43,7.31-4.72,9.37-7.29.04-.41-1.68-.01-1.88-.15-1.37,1.35-1.93,2.44-2.94,3.52l-.33-.47c-.03.51-1.29,1.75-.33,1.42-.77.95-1.03.13-1.92,1.22-.27-.55.34-1.09.05-1.5l-.77.95c.16-.41-.69.26-.54-.14-1.32,1.9-2.62,1.61-4.25,3.24l1.08-.67c.19.27-.41.68-.79,1.09-.78,0-1.04.27-2.1.8-.65.81-.74,1.63-1.83,2.44-.15-.68-2.02,1.07-2.54.79.14.68-1.98,1.75-1.91,2.16-.51.54-1.35,1.08-1.54.8.07-.08.21-.26.37-.41l-.59.41c.01-.1-.04-.13.02-.19-.53.37-.26.75-1.12,1-.1-.14.27-.41.53-.68-1.45.94-1.85,2.57-3.35,2.96-.05.41-1.64,1.61-.89,1.9-.57.13-.73-.42-1.84.52-.33.95-1.43.8-2.1,1.75.83-1.35-.09-.14.6-1.36-.94.4-1.66,1.89-3.11,2.82-.22,0-.32-.14-.54-.14-.4.54-.71,1.35-1.5,1.34l.3.28c-1.06.53-2.3,1.6-3.58,1.99l-.73,1.49c-2.07.51-3.77,2.67-4.61,4.15-.61.4-1.56.92-1.66.79.1-.15.26-.41.47-.69-.87.6-2.18,1.01-2.29,1.88-.77.8-.9.11-1.62.51-1.25,2.02-5.64,3.3-5.38,4.8.73-.52,2.28-1.31,3.63-2.38-.27.4.18.41-.32.81-1.36,1.07-2.37,1.18-3.63,2.38l-.35-.83c-2.92,1.02-3.88,4.27-6.49,4.62Z"/>
    <path class="cls-1" d="M187.1,345.73l-1.27.38.33.23c.28-.28.59-.51.95-.61Z"/>
    <path class="cls-1" d="M186.16,346.34c-.18.18-.34.38-.48.57.23-.16.43-.32.57-.52l-.08-.06Z"/>
    <path class="cls-1" d="M165.26,361.74c-.24.13-.72.39-1.11.78.35-.12.96-.52,1.11-.78Z"/>
    <polygon class="cls-1" points="164.23 362.8 164.82 362.55 164.84 362.41 164.23 362.8"/>
    <path class="cls-1" d="M134.68,384.46l-1.37,1.56c-.44-.03-2.16,1.51-1.8.71-.64,1.19-3.15,2.13-1.84,2.35,4.75-3.52,11.78-7.68,16.91-12.27l-.69.93c2.49-2.63,4.45-2.13,5.95-4.95l.11.82c1.45-.77,1.93-2.66,3.76-3.01l-.31-.15c.37-.26.59-.25.96-.51h-.23c.79-.93,1.41-1.32,2.48-1.83.2.14-.39.4-.65.66.58-.11,1.04-1.06,1.78-1.58.7-.25.19.28.17.42,2.03-1.86,3.49-1.95,4.42-3.97.04-.27-.79.11-.04-.55-1.67.77-2.6,1.97-3.76,3.17l.37-.27c-.44,1.63-.94.38-2.38,1.98.2-.67.94-1.2,1.1-1.6-2.44.75-2.46,2.51-4.37,2.58l.13-.13c-.35.12-.76.65-1.15,1.05.23,0,.71-.25,1.06-.38-.39.4-.35.95-.39,1.22-.78-.03-.54.66-1.48,1.04-.54-.15.44-.8.61-1.21l-.8.93c-.87.65-1.15.23-1.72.35-.56.8.57-.12.24.69-1.25.24-5.25,3.21-6.95,4.91.63-.52-.03-.55.82-1.06-.35.12-1.26,1.04-1.08,1.32-1.18,1.18-3,2.21-4.44,2.81l.56.03c-.74,1.19-2.92,1.49-4.61,3.05l.04-.02c-.56.47-.62,1.51-1.82,2.12.09-.54.7-.92.41-1.21Z"/>
    <path class="cls-1" d="M128.46,389.56l.36-.8c-.74.37-1.25,1.43-.94,1.59.4-.39,1.12-.62,1.05-.9-.11,0-.2-.15-.47.11Z"/>
    <path class="cls-1" d="M115.58,397.8c-.21.24-.05.35-.09.53,1.42-.82,2.89-1.87,4.24-2.69,1.33-.83,2.48-1.49,3.11-1.69.99-.47.78-1.18,1.84-2.06l.78.06c.46-.65,2.64-1.45,1.54-1.66-.11-.01-.34.66-.94.88l-.06-.28-1.17.87.21-.53c-1.93.68-.63,1.6-2.85,2.67l-.35-.58c-1.39.85-1.99,1.46-3.42,1.87,0,0,.17.3.33.03.25-.11.69-.07.64.2-1.83,1.75.12-.54-1.5.13-1.51,1.53-4.87,3.84-6.14,3.96.53-.06.53.18.25.5-.29.32-.85.71-1.41.97-.6.04.17-.53.25-.8-.53.19-1.01.24-1.47.58.81.01.61.67-.49,1.48,1.39-.47,2.49-1.23,3.52-2.05.99-.85,1.94-1.73,3.19-2.4Z"/>
    <path class="cls-1" d="M115.14,398.71c.24-.16.33-.28.35-.38-.33.2-.67.39-.98.58l.63-.2Z"/>
  </g>
</svg>